<?xml version="1.0" encoding="UTF-8" ?>
<!DOCTYPE svg PUBLIC "-//W3C//DTD SVG 1.1//EN" "http://www.w3.org/Graphics/SVG/1.1/DTD/svg11.dtd">
<svg width="753pt" height="672pt" viewBox="0 0 753 672" version="1.1" xmlns="http://www.w3.org/2000/svg">
<g id="#63230066">
<path fill="#632300" opacity="0.40" d=" M 383.02 50.04 C 395.03 49.97 407.04 49.93 419.05 50.06 L 418.83 51.15 L 417.77 51.24 C 406.79 51.26 395.63 50.14 384.75 51.58 C 383.16 52.33 382.58 51.82 383.02 50.04 Z" />
</g>
<g id="#f15601f6">
<path fill="#f15601" opacity="0.96" d=" M 384.75 51.58 C 395.63 50.14 406.79 51.26 417.77 51.24 C 421.17 51.74 424.64 52.09 428.10 52.04 L 429.20 52.07 L 428.76 52.80 C 424.23 54.03 421.06 57.97 418.62 61.78 C 417.06 62.43 415.60 61.23 414.17 60.79 C 404.80 56.39 394.44 54.97 384.75 51.58 Z" />
</g>
<g id="#76290079">
<path fill="#762900" opacity="0.47" d=" M 417.77 51.24 L 418.83 51.15 C 421.37 51.83 426.91 49.48 428.10 52.04 C 424.64 52.09 421.17 51.74 417.77 51.24 Z" />
</g>
<g id="#852e0088">
<path fill="#852e00" opacity="0.53" d=" M 429.20 52.07 C 431.55 52.41 436.16 50.80 437.02 53.01 C 434.25 52.95 431.50 52.88 428.76 52.80 L 429.20 52.07 Z" />
</g>
<g id="#f75901fc">
<path fill="#f75901" opacity="1.00" d=" M 418.62 61.78 C 421.06 57.97 424.23 54.03 428.76 52.80 C 431.50 52.88 434.25 52.95 437.02 53.01 C 453.98 54.01 470.48 58.34 487.00 62.03 C 508.19 66.63 528.90 73.65 548.01 83.98 C 566.12 94.12 582.42 107.28 596.72 122.26 C 610.16 139.88 624.02 157.68 633.07 177.99 C 627.71 174.59 626.11 167.65 621.86 163.16 C 618.81 158.64 614.76 154.84 612.11 150.05 C 612.52 148.55 615.21 146.77 612.30 145.72 C 598.88 131.17 585.33 116.43 569.36 104.63 C 552.85 102.63 535.82 105.45 519.23 103.29 C 515.13 107.86 509.68 111.45 506.67 116.89 C 480.80 94.22 451.66 74.36 419.09 62.64 L 418.62 61.78 Z" />
</g>
<g id="#8925008d">
<path fill="#892500" opacity="0.55" d=" M 102.00 69.03 C 127.67 68.99 153.33 68.96 179.00 69.03 L 179.00 69.99 C 172.06 70.08 165.13 69.81 158.20 70.14 C 139.47 69.87 120.74 70.04 102.01 70.00 L 102.00 69.03 Z" />
</g>
<g id="#7d2a0081">
<path fill="#7d2a00" opacity="0.51" d=" M 179.00 69.03 C 230.00 68.98 281.00 68.97 332.00 69.03 L 332.00 70.00 C 313.98 70.08 295.97 69.87 277.96 70.04 C 277.28 70.08 275.91 70.17 275.22 70.21 C 260.56 69.94 245.88 69.81 231.21 70.17 C 226.87 70.14 222.54 70.03 218.21 70.21 C 209.88 70.06 201.53 69.74 193.21 70.18 C 188.47 70.09 183.74 70.04 179.00 69.99 L 179.00 69.03 Z" />
</g>
<g id="#491b004b">
<path fill="#491b00" opacity="0.29" d=" M 332.00 69.03 C 334.35 69.83 340.02 67.52 341.01 69.99 C 337.98 69.99 335.01 70.02 332.00 70.00 L 332.00 69.03 Z" />
</g>
<g id="#741e0077">
<path fill="#741e00" opacity="0.47" d=" M 101.04 70.02 L 102.01 70.00 C 102.03 87.74 101.90 105.47 102.09 123.20 C 102.00 128.13 102.02 133.07 101.99 138.00 L 101.03 138.00 C 100.99 115.34 100.95 92.67 101.04 70.02 Z" />
</g>
<g id="#f84200ff">
<path fill="#f84200" opacity="1.00" d=" M 102.01 70.00 C 120.74 70.04 139.47 69.87 158.20 70.14 C 153.83 71.32 148.81 71.99 145.73 75.73 C 134.87 86.89 123.21 97.34 113.56 109.62 C 109.60 114.02 106.67 119.37 102.09 123.20 C 101.90 105.47 102.03 87.74 102.01 70.00 Z" />
</g>
<g id="#f94701ff">
<path fill="#f94701" opacity="1.00" d=" M 158.20 70.14 C 165.13 69.81 172.06 70.08 179.00 69.99 C 183.74 70.04 188.47 70.09 193.21 70.18 C 187.62 71.61 181.21 70.88 176.26 74.30 C 149.56 95.94 126.10 121.42 107.01 150.03 C 102.60 155.40 104.39 163.03 102.24 169.26 C 101.86 158.84 102.05 148.42 101.99 138.00 C 102.02 133.07 102.00 128.13 102.09 123.20 C 106.67 119.37 109.60 114.02 113.56 109.62 C 123.21 97.34 134.87 86.89 145.73 75.73 C 148.81 71.99 153.83 71.32 158.20 70.14 Z" />
</g>
<g id="#f94b01ff">
<path fill="#f94b01" opacity="1.00" d=" M 193.21 70.18 C 201.53 69.74 209.88 70.06 218.21 70.21 C 210.92 71.44 203.14 70.37 196.17 73.21 C 185.66 79.71 176.57 88.19 167.25 96.25 C 157.57 106.23 147.10 115.49 138.30 126.29 C 126.35 140.64 115.36 155.82 105.99 171.99 C 104.17 175.45 104.23 179.47 103.34 183.21 C 103.09 181.37 102.79 179.53 102.27 177.74 C 102.17 174.90 102.03 172.08 102.24 169.26 C 104.39 163.03 102.60 155.40 107.01 150.03 C 126.10 121.42 149.56 95.94 176.26 74.30 C 181.21 70.88 187.62 71.61 193.21 70.18 Z" />
</g>
<g id="#f94e01ff">
<path fill="#f94e01" opacity="1.00" d=" M 218.21 70.21 C 222.54 70.03 226.87 70.14 231.21 70.17 C 224.47 71.55 216.80 70.63 211.01 75.03 C 168.39 103.53 133.01 142.70 108.97 187.98 C 105.76 193.58 104.05 199.84 103.15 206.20 C 103.04 198.54 102.76 190.86 103.34 183.21 C 104.23 179.47 104.17 175.45 105.99 171.99 C 115.36 155.82 126.35 140.64 138.30 126.29 C 147.10 115.49 157.57 106.23 167.25 96.25 C 176.57 88.19 185.66 79.71 196.17 73.21 C 203.14 70.37 210.92 71.44 218.21 70.21 Z" />
<path fill="#f94e01" opacity="1.00" d=" M 103.29 440.75 C 104.66 447.97 104.94 455.58 108.85 462.06 C 125.30 498.17 148.61 531.31 177.92 558.16 C 178.04 571.82 178.06 585.49 177.95 599.16 C 148.41 576.45 123.42 548.01 103.32 516.71 C 104.60 506.83 102.62 496.93 102.98 487.00 C 103.14 471.58 102.70 456.15 103.29 440.75 Z" />
</g>
<g id="#f95101ff">
<path fill="#f95101" opacity="1.00" d=" M 231.21 70.17 C 245.88 69.81 260.56 69.94 275.22 70.21 C 271.24 70.74 267.24 70.95 263.25 71.30 C 253.05 71.50 242.19 70.23 232.33 73.37 C 176.25 106.00 131.22 157.18 106.07 217.01 C 102.79 224.69 105.30 233.38 103.26 241.26 C 102.95 229.58 102.79 217.88 103.15 206.20 C 104.05 199.84 105.76 193.58 108.97 187.98 C 133.01 142.70 168.39 103.53 211.01 75.03 C 216.80 70.63 224.47 71.55 231.21 70.17 Z" />
</g>
<g id="#fa5601ff">
<path fill="#fa5601" opacity="1.00" d=" M 275.22 70.21 C 275.91 70.17 277.28 70.08 277.96 70.04 C 275.60 73.18 281.29 72.55 283.13 73.33 C 247.52 87.39 215.07 108.99 187.66 135.64 C 186.44 135.93 184.00 136.49 182.78 136.78 C 181.48 137.14 179.79 136.75 178.81 137.82 C 177.69 138.78 178.17 140.51 177.83 141.80 C 141.18 180.37 116.23 229.90 106.19 282.10 C 104.31 295.64 103.74 309.34 103.99 323.00 C 104.24 343.34 103.27 363.72 105.03 384.02 C 114.18 438.86 140.09 490.51 177.90 531.21 C 177.98 535.79 177.97 540.40 178.02 545.00 C 177.98 549.37 177.97 553.76 177.92 558.16 C 148.61 531.31 125.30 498.17 108.85 462.06 C 104.94 455.58 104.66 447.97 103.29 440.75 C 102.76 381.91 102.90 323.05 103.22 264.22 C 104.15 258.05 104.04 251.70 105.59 245.65 C 117.83 208.96 136.69 174.34 162.05 145.05 C 186.00 116.24 216.12 92.81 249.08 75.13 C 253.30 72.31 258.50 72.47 263.25 71.30 C 267.24 70.95 271.24 70.74 275.22 70.21 Z" />
</g>
<g id="#f85a01fd">
<path fill="#f85a01" opacity="1.00" d=" M 277.96 70.04 C 295.97 69.87 313.98 70.08 332.00 70.00 C 335.01 70.02 337.98 69.99 341.01 69.99 C 352.46 70.59 363.66 73.02 374.88 75.18 L 375.04 76.04 C 365.31 75.46 355.86 72.06 346.02 72.55 C 334.89 69.87 323.29 72.07 312.05 73.15 C 280.59 82.80 250.01 96.67 223.93 116.92 C 215.62 122.47 208.58 129.60 201.84 136.92 C 195.48 137.02 189.13 137.07 182.78 136.78 C 184.00 136.49 186.44 135.93 187.66 135.64 C 215.07 108.99 247.52 87.39 283.13 73.33 C 281.29 72.55 275.60 73.18 277.96 70.04 Z" />
</g>
<g id="#fa5401ff">
<path fill="#fa5401" opacity="1.00" d=" M 232.33 73.37 C 242.19 70.23 253.05 71.50 263.25 71.30 C 258.50 72.47 253.30 72.31 249.08 75.13 C 216.12 92.81 186.00 116.24 162.05 145.05 C 136.69 174.34 117.83 208.96 105.59 245.65 C 104.04 251.70 104.15 258.05 103.22 264.22 C 103.01 256.56 102.80 248.90 103.26 241.26 C 105.30 233.38 102.79 224.69 106.07 217.01 C 131.22 157.18 176.25 106.00 232.33 73.37 Z" />
</g>
<g id="#fa5f01ff">
<path fill="#fa5f01" opacity="1.00" d=" M 312.05 73.15 C 323.29 72.07 334.89 69.87 346.02 72.55 C 355.86 72.06 365.31 75.46 375.04 76.04 C 379.91 76.87 386.17 77.19 390.07 79.98 C 370.08 77.56 349.90 81.25 330.39 85.50 C 296.06 92.76 264.13 108.73 235.20 128.20 C 231.54 131.31 226.79 133.04 223.79 136.91 C 216.47 137.04 209.15 137.00 201.84 136.92 C 208.58 129.60 215.62 122.47 223.93 116.92 C 250.01 96.67 280.59 82.80 312.05 73.15 Z" />
</g>
<g id="#f96402fe">
<path fill="#f96402" opacity="1.00" d=" M 330.39 85.50 C 349.90 81.25 370.08 77.56 390.07 79.98 C 405.82 83.48 420.41 91.10 434.76 98.37 L 435.12 99.21 C 432.45 100.05 430.63 97.22 428.11 96.86 C 376.69 87.15 322.37 95.99 275.99 119.97 C 266.51 124.88 256.99 129.97 248.79 136.87 C 240.45 137.03 232.12 137.09 223.79 136.91 C 226.79 133.04 231.54 131.31 235.20 128.20 C 264.13 108.73 296.06 92.76 330.39 85.50 Z" />
</g>
<g id="#fa6902fe">
<path fill="#fa6902" opacity="1.00" d=" M 275.99 119.97 C 322.37 95.99 376.69 87.15 428.11 96.86 C 430.63 97.22 432.45 100.05 435.12 99.21 C 435.52 99.23 436.32 99.28 436.73 99.30 C 446.69 105.49 456.92 111.44 465.84 119.13 C 467.68 120.60 470.23 121.78 470.97 124.18 C 408.93 98.95 334.73 102.74 276.76 136.85 C 267.44 137.09 258.11 137.05 248.79 136.87 C 256.99 129.97 266.51 124.88 275.99 119.97 Z" />
</g>
<g id="#f95b01fe">
<path fill="#f95b01" opacity="1.00" d=" M 519.23 103.29 C 535.82 105.45 552.85 102.63 569.36 104.63 C 585.33 116.43 598.88 131.17 612.30 145.72 C 615.21 146.77 612.52 148.55 612.11 150.05 C 614.76 154.84 618.81 158.64 621.86 163.16 C 626.11 167.65 627.71 174.59 633.07 177.99 C 634.39 178.65 635.36 179.66 635.96 181.03 C 654.86 216.94 666.08 256.65 669.96 296.99 C 670.00 299.75 669.79 302.63 670.65 305.32 C 670.75 305.78 670.96 306.70 671.06 307.16 C 671.04 308.87 671.00 312.28 670.99 313.99 C 670.50 316.42 670.67 318.75 671.50 320.99 C 672.27 329.12 672.33 337.54 671.73 345.75 C 671.18 349.13 670.94 352.59 670.95 356.02 C 667.95 401.17 656.71 446.12 635.04 486.02 C 618.15 516.95 595.24 544.76 567.17 566.15 C 528.43 595.78 481.32 614.70 432.86 620.01 C 430.43 619.48 428.14 619.65 426.00 620.50 C 425.51 620.64 424.53 620.90 424.04 621.04 C 422.75 620.94 421.47 620.83 420.19 620.72 C 412.17 619.73 404.11 618.62 396.00 618.98 C 335.49 620.95 274.62 602.61 225.06 567.93 C 221.31 565.21 217.34 562.69 214.20 559.23 C 213.92 559.71 213.36 560.67 213.08 561.15 C 213.04 551.02 212.81 540.89 213.17 530.78 C 214.09 533.13 214.34 535.94 216.24 537.78 C 255.42 570.94 304.32 592.64 355.40 598.44 C 371.82 600.95 388.48 599.78 405.02 599.98 C 462.37 595.75 518.32 572.65 561.24 534.24 C 599.39 501.18 627.04 456.46 640.97 408.00 C 655.58 355.65 654.32 298.74 635.47 247.63 C 623.18 213.14 603.71 181.14 578.26 154.79 C 574.20 153.35 569.44 154.16 565.12 153.23 C 556.97 147.54 550.61 139.56 542.19 134.13 C 539.00 137.65 535.04 140.67 532.70 144.85 C 524.23 135.63 515.63 125.88 506.67 116.89 C 509.68 111.45 515.13 107.86 519.23 103.29 Z" />
</g>
<g id="#fa6e02fe">
<path fill="#fa6e02" opacity="1.00" d=" M 276.76 136.85 C 334.73 102.74 408.93 98.95 470.97 124.18 C 475.90 126.51 479.35 131.06 483.25 134.75 C 492.52 143.88 502.14 152.93 508.99 164.10 C 500.97 161.06 495.04 154.13 487.01 150.97 C 438.68 124.60 379.83 118.13 327.08 134.07 C 325.18 134.70 323.25 135.35 321.76 136.74 C 306.76 137.17 291.75 137.11 276.76 136.85 Z" />
</g>
<g id="#f97402fd">
<path fill="#f97402" opacity="1.00" d=" M 327.08 134.07 C 379.83 118.13 438.68 124.60 487.01 150.97 C 495.04 154.13 500.97 161.06 508.99 164.10 C 519.44 178.62 529.37 194.70 535.02 212.01 C 530.54 210.00 528.86 204.81 525.27 201.74 C 505.52 181.75 481.57 165.62 455.20 155.76 C 435.73 147.95 414.83 144.54 393.99 143.12 C 390.76 145.06 388.45 148.15 385.83 150.81 C 369.00 144.93 351.26 139.98 333.25 138.72 C 331.75 138.45 328.76 137.92 327.26 137.66 C 325.45 137.21 323.60 136.94 321.76 136.74 C 323.25 135.35 325.18 134.70 327.08 134.07 Z" />
</g>
<g id="#fb6a02ff">
<path fill="#fb6a02" opacity="1.00" d=" M 542.19 134.13 C 550.61 139.56 556.97 147.54 565.12 153.23 C 562.41 156.19 559.26 158.78 556.85 162.00 C 563.34 170.20 571.30 177.11 577.45 185.59 C 608.24 224.46 626.76 272.85 629.43 322.40 C 633.60 383.60 612.27 445.97 572.61 492.64 C 538.25 533.93 489.65 563.23 437.01 574.04 C 384.78 585.12 328.89 578.82 280.99 555.02 C 258.29 544.42 237.85 529.53 219.52 512.55 C 215.73 510.19 214.59 505.72 213.16 501.78 C 213.06 498.81 213.03 495.94 212.98 493.00 C 213.00 487.25 213.06 481.51 213.17 475.77 C 215.40 484.44 222.53 490.30 228.22 496.77 C 245.10 511.99 262.90 526.86 283.75 536.31 C 284.03 536.77 284.58 537.68 284.85 538.14 C 287.96 540.10 292.96 538.49 296.76 539.19 C 323.69 552.76 354.13 557.65 383.99 559.03 C 426.90 559.39 469.87 547.17 505.98 523.97 C 546.09 498.59 577.74 460.06 594.56 415.64 C 606.78 385.10 610.56 351.70 608.89 319.01 C 606.27 289.11 597.83 259.67 583.81 233.13 C 580.67 229.50 580.77 224.51 578.88 220.29 C 578.40 220.42 577.44 220.69 576.97 220.82 L 576.24 220.97 C 566.52 193.22 550.29 168.19 532.70 144.85 C 535.04 140.67 539.00 137.65 542.19 134.13 Z" />
</g>
<g id="#d15501d4">
<path fill="#d15501" opacity="0.83" d=" M 178.81 137.82 C 179.79 136.75 181.48 137.14 182.78 136.78 C 189.13 137.07 195.48 137.02 201.84 136.92 C 209.15 137.00 216.47 137.04 223.79 136.91 C 232.12 137.09 240.45 137.03 248.79 136.87 C 258.11 137.05 267.44 137.09 276.76 136.85 C 291.75 137.11 306.76 137.17 321.76 136.74 C 323.60 136.94 325.45 137.21 327.26 137.66 C 277.79 138.33 228.29 138.02 178.81 137.82 Z" />
</g>
<g id="#66220068">
<path fill="#662200" opacity="0.41" d=" M 101.03 138.00 L 101.99 138.00 C 102.05 148.42 101.86 158.84 102.24 169.26 C 102.03 172.08 102.17 174.90 102.27 177.74 C 101.64 280.82 102.17 383.92 102.01 487.00 C 101.97 502.67 102.04 518.33 101.98 534.01 L 101.01 533.99 C 101.00 402.00 100.97 270.00 101.03 138.00 Z" />
</g>
<g id="#db5401df">
<path fill="#db5401" opacity="0.87" d=" M 177.83 141.80 C 178.17 140.51 177.69 138.78 178.81 137.82 C 179.22 164.54 178.91 191.27 178.99 218.00 L 178.01 218.01 C 177.96 216.26 177.90 214.51 177.84 212.77 C 178.00 207.10 177.97 201.42 177.86 195.76 C 177.93 192.42 177.99 189.11 177.89 185.78 C 177.97 180.77 178.05 175.77 177.90 170.76 C 177.97 165.77 178.03 160.79 177.91 155.81 C 177.96 151.14 178.01 146.47 177.83 141.80 Z" />
</g>
<g id="#35150036">
<path fill="#351500" opacity="0.21" d=" M 178.81 137.82 C 228.29 138.02 277.79 138.33 327.26 137.66 C 328.76 137.92 331.75 138.45 333.25 138.72 C 282.19 139.41 231.10 138.74 180.03 139.05 C 179.92 300.03 180.09 461.01 179.95 621.99 L 178.99 621.97 C 179.01 596.31 179.00 570.65 179.00 545.00 C 179.00 517.33 179.01 489.67 178.99 462.01 C 179.00 380.67 179.01 299.33 178.99 218.00 C 178.91 191.27 179.22 164.54 178.81 137.82 Z" />
</g>
<g id="#fa5a01ff">
<path fill="#fa5a01" opacity="1.00" d=" M 106.19 282.10 C 116.23 229.90 141.18 180.37 177.83 141.80 C 178.01 146.47 177.96 151.14 177.91 155.81 C 140.02 198.59 116.78 253.84 111.66 310.69 C 106.12 362.12 116.99 414.81 140.20 460.89 C 150.56 480.64 162.36 500.10 177.92 516.21 C 177.98 521.19 178.04 526.21 177.90 531.21 C 140.09 490.51 114.18 438.86 105.03 384.02 C 103.27 363.72 104.24 343.34 103.99 323.00 C 103.74 309.34 104.31 295.64 106.19 282.10 Z" />
</g>
<g id="#fa7a02fd">
<path fill="#fa7a02" opacity="1.00" d=" M 393.99 143.12 C 414.83 144.54 435.73 147.95 455.20 155.76 C 481.57 165.62 505.52 181.75 525.27 201.74 C 528.86 204.81 530.54 210.00 535.02 212.01 C 546.82 237.43 551.97 266.05 555.02 293.98 C 554.98 296.06 554.88 298.13 554.80 300.21 C 553.85 296.48 554.68 292.34 553.14 288.78 C 551.57 285.68 552.93 282.00 551.38 278.88 C 552.19 275.35 549.87 272.44 548.70 269.30 C 531.04 226.75 496.11 191.25 453.17 174.26 C 449.09 178.78 443.97 182.46 440.69 187.65 C 439.63 187.39 438.42 183.94 436.30 183.64 C 422.09 169.21 404.20 158.94 385.83 150.81 C 388.45 148.15 390.76 145.06 393.99 143.12 Z" />
</g>
<g id="#fa6302ff">
<path fill="#fa6302" opacity="1.00" d=" M 565.12 153.23 C 569.44 154.16 574.20 153.35 578.26 154.79 C 603.71 181.14 623.18 213.14 635.47 247.63 C 654.32 298.74 655.58 355.65 640.97 408.00 C 627.04 456.46 599.39 501.18 561.24 534.24 C 518.32 572.65 462.37 595.75 405.02 599.98 C 388.48 599.78 371.82 600.95 355.40 598.44 C 304.32 592.64 255.42 570.94 216.24 537.78 C 214.34 535.94 214.09 533.13 213.17 530.78 C 212.92 521.11 212.90 511.44 213.16 501.78 C 214.59 505.72 215.73 510.19 219.52 512.55 C 237.85 529.53 258.29 544.42 280.99 555.02 C 328.89 578.82 384.78 585.12 437.01 574.04 C 489.65 563.23 538.25 533.93 572.61 492.64 C 612.27 445.97 633.60 383.60 629.43 322.40 C 626.76 272.85 608.24 224.46 577.45 185.59 C 571.30 177.11 563.34 170.20 556.85 162.00 C 559.26 158.78 562.41 156.19 565.12 153.23 Z" />
<path fill="#fa6302" opacity="1.00" d=" M 141.07 257.04 C 149.75 231.68 161.22 206.92 177.89 185.78 C 177.99 189.11 177.93 192.42 177.86 195.76 C 131.65 262.23 121.77 352.13 151.72 427.30 C 158.75 444.39 166.43 461.58 177.88 476.22 C 177.96 479.87 178.02 483.58 177.89 487.25 C 164.61 469.76 154.23 450.14 146.31 429.68 C 124.43 375.04 123.25 312.96 141.07 257.04 Z" />
</g>
<g id="#fa5d01ff">
<path fill="#fa5d01" opacity="1.00" d=" M 111.66 310.69 C 116.78 253.84 140.02 198.59 177.91 155.81 C 178.03 160.79 177.97 165.77 177.90 170.76 C 160.84 190.36 148.43 213.72 138.54 237.63 C 117.04 291.46 113.59 352.56 129.50 408.36 C 139.36 442.34 155.11 475.04 177.91 502.22 C 177.97 506.87 178.00 511.55 177.92 516.21 C 162.36 500.10 150.56 480.64 140.20 460.89 C 116.99 414.81 106.12 362.12 111.66 310.69 Z" />
</g>
<g id="#fa6001ff">
<path fill="#fa6001" opacity="1.00" d=" M 138.54 237.63 C 148.43 213.72 160.84 190.36 177.90 170.76 C 178.05 175.77 177.97 180.77 177.89 185.78 C 161.22 206.92 149.75 231.68 141.07 257.04 C 123.25 312.96 124.43 375.04 146.31 429.68 C 154.23 450.14 164.61 469.76 177.89 487.25 C 177.97 492.22 178.05 497.23 177.91 502.22 C 155.11 475.04 139.36 442.34 129.50 408.36 C 113.59 352.56 117.04 291.46 138.54 237.63 Z" />
</g>
<g id="#f98003fc">
<path fill="#f98003" opacity="1.00" d=" M 453.17 174.26 C 496.11 191.25 531.04 226.75 548.70 269.30 C 549.87 272.44 552.19 275.35 551.38 278.88 C 552.93 282.00 551.57 285.68 553.14 288.78 C 554.68 292.34 553.85 296.48 554.80 300.21 C 554.84 300.66 554.92 301.56 554.96 302.01 C 555.06 313.67 554.96 325.34 555.01 337.01 C 552.72 376.54 536.94 414.77 513.36 446.33 C 486.68 481.45 445.75 505.72 401.86 511.01 C 399.43 510.49 397.15 510.66 395.00 511.50 C 394.51 511.62 393.54 511.86 393.06 511.98 C 383.68 512.00 374.30 512.05 364.94 511.95 C 364.44 511.87 363.44 511.69 362.94 511.61 C 361.50 511.36 358.60 510.86 357.16 510.62 C 356.10 510.33 355.05 510.04 354.01 509.76 C 355.26 508.12 356.74 506.67 358.20 505.22 C 359.44 504.87 360.84 504.75 361.47 503.45 C 373.10 499.35 384.07 493.48 394.95 487.90 C 392.74 490.73 390.12 493.20 387.82 495.95 C 430.85 497.16 472.95 477.19 502.72 446.72 C 533.71 414.14 550.15 368.46 546.64 323.59 C 544.82 302.26 538.70 281.32 528.64 262.44 C 526.90 261.94 524.76 261.96 523.97 260.01 C 516.27 247.12 507.35 234.92 496.81 224.20 C 494.14 221.53 491.35 218.83 487.91 217.22 C 484.60 217.10 481.40 216.81 478.13 216.51 C 474.67 219.64 471.50 223.07 468.10 226.24 C 465.70 224.82 465.66 221.12 463.99 218.98 C 459.36 211.71 455.04 204.19 449.41 197.63 C 447.13 193.77 443.00 191.40 440.69 187.65 C 443.97 182.46 449.09 178.78 453.17 174.26 Z" />
</g>
<g id="#f45300f9">
<path fill="#f45300" opacity="0.98" d=" M 102.27 177.74 C 102.79 179.53 103.09 181.37 103.34 183.21 C 102.76 190.86 103.04 198.54 103.15 206.20 C 102.79 217.88 102.95 229.58 103.26 241.26 C 102.80 248.90 103.01 256.56 103.22 264.22 C 102.90 323.05 102.76 381.91 103.29 440.75 C 102.70 456.15 103.14 471.58 102.98 487.00 L 102.01 487.00 C 102.17 383.92 101.64 280.82 102.27 177.74 Z" />
</g>
<g id="#0e06000e">
<path fill="#0e0600" opacity="0.05" d=" M 211.99 190.00 C 224.33 189.96 236.66 190.01 249.00 190.00 C 261.08 190.37 273.26 189.13 285.26 190.83 C 261.17 191.19 237.08 190.92 212.99 190.99 L 212.00 190.94 L 211.99 190.00 Z" />
</g>
<g id="#96470198">
<path fill="#964701" opacity="0.60" d=" M 212.00 190.94 L 212.99 190.99 L 213.01 192.00 C 213.09 209.74 212.76 227.49 213.22 245.23 C 212.85 261.55 212.88 277.89 213.18 294.21 C 213.00 326.05 212.68 357.92 213.27 389.75 C 212.89 402.41 212.81 415.10 213.22 427.77 C 212.97 437.09 212.83 446.43 213.19 455.77 C 213.09 462.42 212.77 469.11 213.17 475.77 C 213.06 481.51 213.00 487.25 212.98 493.00 L 212.00 493.00 C 212.00 392.31 212.00 291.63 212.00 190.94 Z" />
</g>
<g id="#b45401b8">
<path fill="#b45401" opacity="0.72" d=" M 212.99 190.99 C 237.08 190.92 261.17 191.19 285.26 190.83 L 284.96 191.91 C 283.04 191.98 281.12 192.04 279.20 192.15 C 270.20 191.99 261.19 191.90 252.19 192.13 C 239.13 191.91 226.07 192.02 213.01 192.00 L 212.99 190.99 Z" />
</g>
<g id="#7f430281">
<path fill="#7f4302" opacity="0.51" d=" M 285.26 190.83 C 320.20 191.23 355.15 190.91 390.09 190.97 C 390.32 191.22 390.77 191.72 391.00 191.97 C 377.07 192.13 363.14 191.73 349.22 192.25 C 337.89 191.97 326.54 191.76 315.21 192.21 C 305.13 191.88 295.04 192.10 284.96 191.91 L 285.26 190.83 Z" />
</g>
<g id="#fb7202ff">
<path fill="#fb7202" opacity="1.00" d=" M 213.01 192.00 C 226.07 192.02 239.13 191.91 252.19 192.13 C 246.29 194.03 242.42 199.02 238.64 203.67 C 230.58 211.80 224.29 221.48 218.04 231.02 C 215.00 235.18 214.30 240.35 213.22 245.23 C 212.76 227.49 213.09 209.74 213.01 192.00 Z" />
</g>
<g id="#fb7902ff">
<path fill="#fb7902" opacity="1.00" d=" M 252.19 192.13 C 261.19 191.90 270.20 191.99 279.20 192.15 C 271.48 194.68 266.62 201.65 260.37 206.42 C 243.21 223.02 229.76 243.27 220.05 265.04 C 215.42 274.06 214.52 284.32 213.18 294.21 C 212.88 277.89 212.85 261.55 213.22 245.23 C 214.30 240.35 215.00 235.18 218.04 231.02 C 224.29 221.48 230.58 211.80 238.64 203.67 C 242.42 199.02 246.29 194.03 252.19 192.13 Z" />
</g>
<g id="#fc7d02ff">
<path fill="#fc7d02" opacity="1.00" d=" M 279.20 192.15 C 281.12 192.04 283.04 191.98 284.96 191.91 C 295.04 192.10 305.13 191.88 315.21 192.21 C 307.75 193.25 299.71 192.51 292.67 195.67 C 253.92 221.62 226.31 264.11 219.56 310.41 C 218.13 319.22 218.26 328.18 217.12 337.03 C 217.79 388.37 242.37 439.58 283.95 470.15 C 284.01 475.78 283.99 481.41 284.00 487.06 C 283.99 487.57 283.97 488.59 283.96 489.10 C 256.01 469.72 232.71 443.29 219.00 412.00 C 215.09 405.20 214.73 397.25 213.27 389.75 C 212.68 357.92 213.00 326.05 213.18 294.21 C 214.52 284.32 215.42 274.06 220.05 265.04 C 229.76 243.27 243.21 223.02 260.37 206.42 C 266.62 201.65 271.48 194.68 279.20 192.15 Z" />
</g>
<g id="#fc8103ff">
<path fill="#fc8103" opacity="1.00" d=" M 315.21 192.21 C 326.54 191.76 337.89 191.97 349.22 192.25 C 338.29 193.62 326.74 191.87 316.32 196.38 C 296.59 205.24 280.26 220.04 265.92 235.92 C 234.72 273.58 222.56 326.16 234.51 373.61 C 241.49 401.94 256.39 428.31 277.21 448.79 C 279.29 450.76 281.14 453.19 283.91 454.26 C 283.98 459.54 284.05 464.86 283.95 470.15 C 242.37 439.58 217.79 388.37 217.12 337.03 C 218.26 328.18 218.13 319.22 219.56 310.41 C 226.31 264.11 253.92 221.62 292.67 195.67 C 299.71 192.51 307.75 193.25 315.21 192.21 Z" />
</g>
<g id="#fc8503ff">
<path fill="#fc8503" opacity="1.00" d=" M 349.22 192.25 C 363.14 191.73 377.07 192.13 391.00 191.97 C 391.51 192.23 392.52 192.73 393.02 192.98 C 378.69 192.54 364.41 193.79 350.10 194.19 C 342.94 194.27 336.44 197.33 329.92 199.89 C 283.01 219.26 247.33 264.15 240.66 314.69 C 232.85 360.89 250.27 409.94 283.93 442.17 C 283.96 446.19 283.96 450.22 283.91 454.26 C 281.14 453.19 279.29 450.76 277.21 448.79 C 256.39 428.31 241.49 401.94 234.51 373.61 C 222.56 326.16 234.72 273.58 265.92 235.92 C 280.26 220.04 296.59 205.24 316.32 196.38 C 326.74 191.87 338.29 193.62 349.22 192.25 Z" />
</g>
<g id="#fc8803ff">
<path fill="#fc8803" opacity="1.00" d=" M 350.10 194.19 C 364.41 193.79 378.69 192.54 393.02 192.98 C 398.73 193.54 403.86 196.67 409.02 198.95 C 410.96 200.26 414.21 200.52 415.02 203.08 C 410.44 201.64 405.93 200.03 401.33 198.66 C 350.80 192.48 297.95 217.84 271.00 261.00 C 243.42 302.59 241.28 359.56 265.92 403.02 C 271.16 411.88 276.49 421.01 283.93 428.21 L 283.99 429.12 C 283.98 433.45 283.98 437.82 283.93 442.17 C 250.27 409.94 232.85 360.89 240.66 314.69 C 247.33 264.15 283.01 219.26 329.92 199.89 C 336.44 197.33 342.94 194.27 350.10 194.19 Z" />
</g>
<g id="#fa6502ff">
<path fill="#fa6502" opacity="1.00" d=" M 151.72 427.30 C 121.77 352.13 131.65 262.23 177.86 195.76 C 177.97 201.42 178.00 207.10 177.84 212.77 C 151.04 255.50 140.83 307.43 144.38 357.41 C 147.18 388.20 155.82 418.50 169.97 446.01 C 172.23 450.61 174.31 455.44 177.86 459.24 C 177.90 459.92 177.98 461.30 178.02 461.98 C 178.00 466.71 178.00 471.47 177.88 476.22 C 166.43 461.58 158.75 444.39 151.72 427.30 Z" />
</g>
<g id="#fc8b03ff">
<path fill="#fc8b03" opacity="1.00" d=" M 271.00 261.00 C 297.95 217.84 350.80 192.48 401.33 198.66 C 405.93 200.03 410.44 201.64 415.02 203.08 C 419.67 205.37 424.20 208.71 427.05 213.11 C 422.18 213.01 417.61 211.06 412.89 210.16 C 379.07 202.78 342.41 210.26 314.09 230.12 C 280.09 253.09 258.45 292.93 257.96 333.99 C 257.18 362.33 266.61 390.83 283.88 413.25 C 283.97 418.22 284.01 423.22 283.93 428.21 C 276.49 421.01 271.16 411.88 265.92 403.02 C 241.28 359.56 243.42 302.59 271.00 261.00 Z" />
</g>
<g id="#fc8e03fe">
<path fill="#fc8e03" opacity="1.00" d=" M 314.09 230.12 C 342.41 210.26 379.07 202.78 412.89 210.16 C 417.61 211.06 422.18 213.01 427.05 213.11 C 434.74 218.58 439.40 227.79 443.97 236.04 C 446.61 242.53 449.84 249.13 449.85 256.27 C 449.13 254.57 448.49 252.85 447.96 251.09 C 446.80 244.63 443.08 239.14 440.96 233.02 C 439.98 230.37 437.07 229.53 434.94 228.09 C 392.33 208.50 338.00 217.31 304.72 250.72 C 301.44 254.45 296.98 257.36 294.74 261.89 C 291.63 262.58 287.55 260.97 284.79 262.80 C 283.05 267.60 284.46 273.57 283.84 278.76 C 272.08 296.39 268.52 318.18 268.00 339.01 C 268.91 353.85 271.60 368.67 277.56 382.37 C 279.37 386.44 280.71 390.94 283.85 394.25 C 284.02 400.57 284.06 406.91 283.88 413.25 C 266.61 390.83 257.18 362.33 257.96 333.99 C 258.45 292.93 280.09 253.09 314.09 230.12 Z" />
</g>
<g id="#fb6802ff">
<path fill="#fb6802" opacity="1.00" d=" M 144.38 357.41 C 140.83 307.43 151.04 255.50 177.84 212.77 C 177.90 214.51 177.96 216.26 178.01 218.01 C 177.93 224.92 178.19 231.85 177.85 238.77 C 171.20 249.52 167.74 261.97 164.03 274.00 C 150.39 322.71 152.85 375.89 172.30 422.70 C 174.15 426.53 174.93 431.03 177.84 434.26 C 178.04 442.57 178.12 450.91 177.86 459.24 C 174.31 455.44 172.23 450.61 169.97 446.01 C 155.82 418.50 147.18 388.20 144.38 357.41 Z" />
</g>
<g id="#fc8703ff">
<path fill="#fc8703" opacity="1.00" d=" M 478.13 216.51 C 481.40 216.81 484.60 217.10 487.91 217.22 C 491.35 218.83 494.14 221.53 496.81 224.20 C 507.35 234.92 516.27 247.12 523.97 260.01 C 524.76 261.96 526.90 261.94 528.64 262.44 C 538.70 281.32 544.82 302.26 546.64 323.59 C 550.15 368.46 533.71 414.14 502.72 446.72 C 472.95 477.19 430.85 497.16 387.82 495.95 C 390.12 493.20 392.74 490.73 394.95 487.90 C 401.55 482.44 409.68 478.97 415.82 472.84 C 419.71 470.49 422.46 465.74 426.88 464.57 C 427.81 464.78 428.74 464.80 429.67 464.62 C 461.91 453.50 489.92 430.32 505.99 400.13 C 504.68 400.04 503.38 399.96 502.08 399.89 C 512.54 380.70 518.52 358.91 518.06 337.00 C 519.22 309.71 509.81 282.81 494.72 260.33 C 492.94 257.53 488.91 259.18 486.11 258.46 C 483.94 260.60 480.67 262.47 480.87 265.93 L 480.05 265.97 C 478.75 252.03 472.62 239.21 468.10 226.24 C 471.50 223.07 474.67 219.64 478.13 216.51 Z" />
</g>
<g id="#dc6102df">
<path fill="#dc6102" opacity="0.87" d=" M 178.01 218.01 L 178.99 218.00 C 179.01 299.33 179.00 380.67 178.99 462.01 L 178.02 461.98 C 177.98 461.30 177.90 459.92 177.86 459.24 C 178.12 450.91 178.04 442.57 177.84 434.26 C 178.01 426.58 178.12 418.90 177.83 411.23 C 178.14 361.40 178.07 311.57 177.87 261.74 C 178.07 254.08 178.03 246.42 177.85 238.77 C 178.19 231.85 177.93 224.92 178.01 218.01 Z" />
</g>
<g id="#fd9203ff">
<path fill="#fd9203" opacity="1.00" d=" M 304.72 250.72 C 338.00 217.31 392.33 208.50 434.94 228.09 C 437.07 229.53 439.98 230.37 440.96 233.02 C 443.08 239.14 446.80 244.63 447.96 251.09 C 415.42 226.93 368.39 224.77 333.67 245.65 C 326.18 250.27 318.51 255.10 312.83 261.93 C 306.79 262.02 300.76 262.02 294.74 261.89 C 296.98 257.36 301.44 254.45 304.72 250.72 Z" />
</g>
<g id="#f96f02fd">
<path fill="#f96f02" opacity="1.00" d=" M 576.97 220.82 C 577.44 220.69 578.40 220.42 578.88 220.29 C 580.77 224.51 580.67 229.50 583.81 233.13 C 597.83 259.67 606.27 289.11 608.89 319.01 C 610.56 351.70 606.78 385.10 594.56 415.64 C 577.74 460.06 546.09 498.59 505.98 523.97 C 469.87 547.17 426.90 559.39 383.99 559.03 C 354.13 557.65 323.69 552.76 296.76 539.19 C 335.57 538.26 374.49 540.10 413.24 538.26 C 414.60 538.04 415.95 537.73 417.29 537.39 C 455.49 534.19 491.55 516.29 519.77 490.77 C 552.83 462.55 576.26 423.38 586.16 381.08 C 589.73 366.34 591.86 351.33 593.28 336.25 C 593.69 332.90 594.01 329.58 594.27 326.22 C 594.99 318.81 595.84 311.09 594.34 303.74 C 594.06 300.37 594.21 297.00 593.40 293.71 C 591.89 273.82 587.15 254.32 581.73 235.17 C 580.56 230.26 577.21 225.90 576.97 220.82 Z" />
</g>
<g id="#fd9603ff">
<path fill="#fd9603" opacity="1.00" d=" M 333.67 245.65 C 368.39 224.77 415.42 226.93 447.96 251.09 C 448.49 252.85 449.13 254.57 449.85 256.27 C 449.87 257.69 449.90 260.54 449.92 261.96 C 446.02 262.03 442.12 262.00 438.24 261.88 C 418.82 247.19 392.75 243.08 369.11 247.24 C 357.34 250.04 344.97 253.62 335.76 261.86 C 328.11 262.06 320.47 262.02 312.83 261.93 C 318.51 255.10 326.18 250.27 333.67 245.65 Z" />
</g>
<g id="#fb6c02ff">
<path fill="#fb6c02" opacity="1.00" d=" M 164.03 274.00 C 167.74 261.97 171.20 249.52 177.85 238.77 C 178.03 246.42 178.07 254.08 177.87 261.74 C 175.31 264.11 175.09 267.91 173.94 270.98 C 160.54 316.49 159.94 366.89 177.83 411.23 C 178.12 418.90 178.01 426.58 177.84 434.26 C 174.93 431.03 174.15 426.53 172.30 422.70 C 152.85 375.89 150.39 322.71 164.03 274.00 Z" />
</g>
<g id="#fd9903ff">
<path fill="#fd9903" opacity="1.00" d=" M 369.11 247.24 C 392.75 243.08 418.82 247.19 438.24 261.88 C 404.08 262.07 369.92 262.10 335.76 261.86 C 344.97 253.62 357.34 250.04 369.11 247.24 Z" />
</g>
<g id="#ce7b02d0">
<path fill="#ce7b02" opacity="0.82" d=" M 449.85 256.27 L 450.87 255.95 C 450.90 257.71 450.95 261.23 450.98 262.99 C 395.58 262.86 340.17 263.28 284.79 262.80 C 287.55 260.97 291.63 262.58 294.74 261.89 C 300.76 262.02 306.79 262.02 312.83 261.93 C 320.47 262.02 328.11 262.06 335.76 261.86 C 369.92 262.10 404.08 262.07 438.24 261.88 C 442.12 262.00 446.02 262.03 449.92 261.96 C 449.90 260.54 449.87 257.69 449.85 256.27 Z" />
</g>
<g id="#fb8f03fe">
<path fill="#fb8f03" opacity="1.00" d=" M 486.11 258.46 C 488.91 259.18 492.94 257.53 494.72 260.33 C 509.81 282.81 519.22 309.71 518.06 337.00 C 518.52 358.91 512.54 380.70 502.08 399.89 C 503.38 399.96 504.68 400.04 505.99 400.13 C 489.92 430.32 461.91 453.50 429.67 464.62 C 428.74 464.80 427.81 464.78 426.88 464.57 C 450.35 440.99 468.83 411.94 477.66 379.71 C 481.78 366.21 483.19 352.14 485.29 338.26 C 486.07 327.19 487.00 315.69 485.29 304.71 C 484.82 300.38 485.43 295.94 484.39 291.70 C 483.45 283.07 481.90 274.50 480.87 265.93 C 480.67 262.47 483.94 260.60 486.11 258.46 Z" />
</g>
<g id="#fb6f02ff">
<path fill="#fb6f02" opacity="1.00" d=" M 173.94 270.98 C 175.09 267.91 175.31 264.11 177.87 261.74 C 178.07 311.57 178.14 361.40 177.83 411.23 C 159.94 366.89 160.54 316.49 173.94 270.98 Z" />
<path fill="#fb6f02" opacity="1.00" d=" M 213.19 455.77 C 214.46 461.43 216.87 466.82 220.91 471.08 C 238.54 491.98 259.59 510.57 283.94 523.21 C 283.97 527.56 283.96 531.94 283.75 536.31 C 262.90 526.86 245.10 511.99 228.22 496.77 C 222.53 490.30 215.40 484.44 213.17 475.77 C 212.77 469.11 213.09 462.42 213.19 455.77 Z" />
</g>
<g id="#d37902d6">
<path fill="#d37902" opacity="0.84" d=" M 283.84 278.76 C 284.46 273.57 283.05 267.60 284.79 262.80 C 285.25 318.19 284.92 373.58 284.96 428.97 L 283.99 429.12 L 283.93 428.21 C 284.01 423.22 283.97 418.22 283.88 413.25 C 284.06 406.91 284.02 400.57 283.85 394.25 C 284.07 355.76 284.14 317.25 283.84 278.76 Z" />
</g>
<g id="#3e24013f">
<path fill="#3e2401" opacity="0.25" d=" M 284.79 262.80 C 340.17 263.28 395.58 262.86 450.98 262.99 L 451.01 263.97 C 396.02 264.07 341.03 263.92 286.04 264.04 C 285.91 320.02 286.09 376.01 285.96 431.99 L 285.00 432.00 C 284.99 431.25 284.97 429.73 284.96 428.97 C 284.92 373.58 285.25 318.19 284.79 262.80 Z" />
</g>
<g id="#fd9103ff">
<path fill="#fd9103" opacity="1.00" d=" M 268.00 339.01 C 268.52 318.18 272.08 296.39 283.84 278.76 C 284.14 317.25 284.07 355.76 283.85 394.25 C 280.71 390.94 279.37 386.44 277.56 382.37 C 271.60 368.67 268.91 353.85 268.00 339.01 Z" />
</g>
<g id="#854d0187">
<path fill="#854d01" opacity="0.53" d=" M 484.39 291.70 C 485.43 295.94 484.82 300.38 485.29 304.71 L 484.18 305.03 C 484.10 300.59 483.53 296.08 484.39 291.70 Z" />
</g>
<g id="#5e2f0160">
<path fill="#5e2f01" opacity="0.38" d=" M 555.02 293.98 C 557.22 294.92 555.54 299.59 555.92 302.01 L 554.96 302.01 C 554.92 301.56 554.84 300.66 554.80 300.21 C 554.88 298.13 554.98 296.06 555.02 293.98 Z" />
</g>
<g id="#4921004b">
<path fill="#492100" opacity="0.29" d=" M 593.40 293.71 C 594.21 297.00 594.06 300.37 594.34 303.74 C 593.89 311.22 593.95 318.72 594.27 326.22 C 594.01 329.58 593.69 332.90 593.28 336.25 C 592.89 322.08 592.66 307.87 593.40 293.71 Z" />
</g>
<g id="#7d2c0080">
<path fill="#7d2c00" opacity="0.50" d=" M 669.96 296.99 C 672.30 297.89 670.54 302.87 670.65 305.32 C 669.79 302.63 670.00 299.75 669.96 296.99 Z" />
</g>
<g id="#a65302a8">
<path fill="#a65302" opacity="0.66" d=" M 554.96 302.01 L 555.92 302.01 C 556.00 303.33 556.03 304.67 556.02 306.00 C 555.97 313.66 555.94 321.33 556.01 329.00 C 555.38 331.34 557.43 336.31 555.01 337.01 C 554.96 325.34 555.06 313.67 554.96 302.01 Z" />
</g>
<g id="#c95b01cc">
<path fill="#c95b01" opacity="0.80" d=" M 594.34 303.74 C 595.84 311.09 594.99 318.81 594.27 326.22 C 593.95 318.72 593.89 311.22 594.34 303.74 Z" />
</g>
<g id="#ae6602b0">
<path fill="#ae6602" opacity="0.69" d=" M 485.29 304.71 C 487.00 315.69 486.07 327.19 485.29 338.26 C 484.91 327.09 484.68 315.87 485.29 304.71 Z" />
</g>
<g id="#1f0f0020">
<path fill="#1f0f00" opacity="0.13" d=" M 556.02 306.00 L 556.98 306.00 C 556.97 313.65 557.15 321.32 556.96 328.98 L 556.01 329.00 C 555.94 321.33 555.97 313.66 556.02 306.00 Z" />
</g>
<g id="#6a25006d">
<path fill="#6a2500" opacity="0.43" d=" M 671.06 307.16 C 672.98 308.19 672.35 312.15 671.47 313.99 L 670.99 313.99 C 671.00 312.28 671.04 308.87 671.06 307.16 Z" />
</g>
<g id="#bf4300c3">
<path fill="#bf4300" opacity="0.76" d=" M 670.99 313.99 L 671.47 313.99 C 672.68 316.02 672.52 318.91 671.50 320.99 C 670.67 318.75 670.50 316.42 670.99 313.99 Z" />
</g>
<g id="#832f0087">
<path fill="#832f00" opacity="0.53" d=" M 670.95 356.02 C 670.94 352.59 671.18 349.13 671.73 345.75 C 671.86 349.13 672.15 352.58 671.96 355.98 L 670.95 356.02 Z" />
</g>
<g id="#fb7802ff">
<path fill="#fb7802" opacity="1.00" d=" M 213.27 389.75 C 214.73 397.25 215.09 405.20 219.00 412.00 C 232.71 443.29 256.01 469.72 283.96 489.10 C 284.01 494.78 283.98 500.46 283.93 506.16 C 256.52 490.26 233.62 466.90 217.10 439.93 C 214.72 436.28 214.13 431.91 213.22 427.77 C 212.81 415.10 212.89 402.41 213.27 389.75 Z" />
</g>
<g id="#fb7302ff">
<path fill="#fb7302" opacity="1.00" d=" M 213.22 427.77 C 214.13 431.91 214.72 436.28 217.10 439.93 C 233.62 466.90 256.52 490.26 283.93 506.16 C 284.01 511.83 284.00 517.51 283.94 523.21 C 259.59 510.57 238.54 491.98 220.91 471.08 C 216.87 466.82 214.46 461.43 213.19 455.77 C 212.83 446.43 212.97 437.09 213.22 427.77 Z" />
</g>
<g id="#cb6902ce">
<path fill="#cb6902" opacity="0.81" d=" M 283.99 429.12 L 284.96 428.97 C 284.97 429.73 284.99 431.25 285.00 432.00 C 284.97 450.33 285.03 468.65 284.99 486.98 L 284.00 487.06 C 283.99 481.41 284.01 475.78 283.95 470.15 C 284.05 464.86 283.98 459.54 283.91 454.26 C 283.96 450.22 283.96 446.19 283.93 442.17 C 283.98 437.82 283.98 433.45 283.99 429.12 Z" />
</g>
<g id="#32190033">
<path fill="#321900" opacity="0.20" d=" M 285.00 432.00 L 285.96 431.99 C 286.03 467.00 286.03 502.02 285.96 537.04 L 285.89 538.07 L 284.85 538.14 C 285.12 521.08 284.98 504.03 284.99 486.98 C 285.03 468.65 284.97 450.33 285.00 432.00 Z" />
</g>
<g id="#db5201df">
<path fill="#db5201" opacity="0.87" d=" M 178.02 461.98 L 178.99 462.01 C 179.01 489.67 179.00 517.33 179.00 545.00 L 178.02 545.00 C 177.97 540.40 177.98 535.79 177.90 531.21 C 178.04 526.21 177.98 521.19 177.92 516.21 C 178.00 511.55 177.97 506.87 177.91 502.22 C 178.05 497.23 177.97 492.22 177.89 487.25 C 178.02 483.58 177.96 479.87 177.88 476.22 C 178.00 471.47 178.00 466.71 178.02 461.98 Z" />
</g>
<g id="#f74601fd">
<path fill="#f74601" opacity="1.00" d=" M 102.01 487.00 L 102.98 487.00 C 102.62 496.93 104.60 506.83 103.32 516.71 C 123.42 548.01 148.41 576.45 177.95 599.16 C 178.00 606.35 178.17 613.57 177.89 620.78 C 177.44 620.89 176.53 621.10 176.07 621.20 C 143.49 613.30 116.58 587.20 106.55 555.33 C 104.92 548.29 102.52 541.24 101.98 534.01 C 102.04 518.33 101.97 502.67 102.01 487.00 Z" />
</g>
<g id="#c35a01c7">
<path fill="#c35a01" opacity="0.78" d=" M 284.00 487.06 L 284.99 486.98 C 284.98 504.03 285.12 521.08 284.85 538.14 C 284.58 537.68 284.03 536.77 283.75 536.31 C 283.96 531.94 283.97 527.56 283.94 523.21 C 284.00 517.51 284.01 511.83 283.93 506.16 C 283.98 500.46 284.01 494.78 283.96 489.10 C 283.97 488.59 283.99 487.57 284.00 487.06 Z" />
</g>
<g id="#9d3800a1">
<path fill="#9d3800" opacity="0.63" d=" M 212.00 493.00 L 212.98 493.00 C 213.03 495.94 213.06 498.81 213.16 501.78 C 212.90 511.44 212.92 521.11 213.17 530.78 C 212.81 540.89 213.04 551.02 213.08 561.15 C 213.00 567.33 212.86 573.54 213.16 579.74 C 212.86 593.80 213.05 607.86 212.99 621.93 L 211.98 622.15 C 212.02 579.10 211.98 536.05 212.00 493.00 Z" />
</g>
<g id="#d26801d5">
<path fill="#d26801" opacity="0.84" d=" M 346.23 508.29 C 350.38 507.89 354.07 505.53 358.20 505.22 C 356.74 506.67 355.26 508.12 354.01 509.76 C 355.05 510.04 356.10 510.33 357.16 510.62 L 356.32 510.94 C 352.46 510.85 348.63 510.49 344.82 509.85 C 345.17 509.46 345.88 508.68 346.23 508.29 Z" />
</g>
<g id="#8843018b">
<path fill="#884301" opacity="0.55" d=" M 356.32 510.94 L 357.16 510.62 C 358.60 510.86 361.50 511.36 362.94 511.61 C 361.16 512.21 356.74 513.28 356.32 510.94 Z" />
</g>
<g id="#85420187">
<path fill="#854201" opacity="0.53" d=" M 395.00 511.50 C 397.15 510.66 399.43 510.49 401.86 511.01 C 400.95 513.15 396.84 512.35 395.00 511.50 Z" />
</g>
<g id="#753a0177">
<path fill="#753a01" opacity="0.47" d=" M 364.94 511.95 C 374.30 512.05 383.68 512.00 393.06 511.98 L 392.98 512.98 C 383.66 512.96 374.34 513.15 365.03 512.95 L 364.94 511.95 Z" />
</g>
<g id="#24110025">
<path fill="#241100" opacity="0.15" d=" M 285.96 537.04 C 327.97 536.92 369.98 537.07 412.00 536.97 C 413.76 536.96 415.54 537.06 417.29 537.39 C 415.95 537.73 414.60 538.04 413.24 538.26 C 370.79 537.71 328.34 538.07 285.89 538.07 L 285.96 537.04 Z" />
</g>
<g id="#da6302de">
<path fill="#da6302" opacity="0.87" d=" M 284.85 538.14 L 285.89 538.07 C 328.34 538.07 370.79 537.71 413.24 538.26 C 374.49 540.10 335.57 538.26 296.76 539.19 C 292.96 538.49 287.96 540.10 284.85 538.14 Z" />
</g>
<g id="#d94301de">
<path fill="#d94301" opacity="0.87" d=" M 178.02 545.00 L 179.00 545.00 C 179.00 570.65 179.01 596.31 178.99 621.97 C 177.25 622.45 176.28 622.19 176.07 621.20 C 176.53 621.10 177.44 620.89 177.89 620.78 C 178.17 613.57 178.00 606.35 177.95 599.16 C 178.06 585.49 178.04 571.82 177.92 558.16 C 177.97 553.76 177.98 549.37 178.02 545.00 Z" />
</g>
<g id="#fa5701ff">
<path fill="#fa5701" opacity="1.00" d=" M 214.20 559.23 C 217.34 562.69 221.31 565.21 225.06 567.93 C 274.62 602.61 335.49 620.95 396.00 618.98 C 404.11 618.62 412.17 619.73 420.19 620.72 C 418.34 620.90 416.50 621.17 414.71 621.64 C 372.30 622.27 329.68 622.19 287.32 621.68 C 285.28 620.08 282.74 619.43 280.37 618.53 C 262.90 611.86 245.91 603.82 230.03 593.94 C 223.84 589.91 216.31 586.83 213.16 579.74 C 212.86 573.54 213.00 567.33 213.08 561.15 C 213.36 560.67 213.92 559.71 214.20 559.23 Z" />
</g>
<g id="#f95001ff">
<path fill="#f95001" opacity="1.00" d=" M 213.16 579.74 C 216.31 586.83 223.84 589.91 230.03 593.94 C 245.91 603.82 262.90 611.86 280.37 618.53 C 282.74 619.43 285.28 620.08 287.32 621.68 C 262.56 622.35 237.76 621.91 212.99 621.93 C 213.05 607.86 212.86 593.80 213.16 579.74 Z" />
</g>
<g id="#8f320093">
<path fill="#8f3200" opacity="0.58" d=" M 426.00 620.50 C 428.14 619.65 430.43 619.48 432.86 620.01 C 431.94 622.15 427.84 621.34 426.00 620.50 Z" />
</g>
<g id="#95340099">
<path fill="#953400" opacity="0.60" d=" M 414.71 621.64 C 416.50 621.17 418.34 620.90 420.19 620.72 C 421.47 620.83 422.75 620.94 424.04 621.04 C 423.70 624.22 417.20 621.33 414.71 621.64 Z" />
</g>
</svg>
