<?xml version="1.0" encoding="UTF-8" ?>
<!DOCTYPE svg PUBLIC "-//W3C//DTD SVG 1.1//EN" "http://www.w3.org/Graphics/SVG/1.1/DTD/svg11.dtd">
<svg width="753pt" height="672pt" viewBox="0 0 753 672" version="1.1" xmlns="http://www.w3.org/2000/svg">
<g id="#63470066">
<path fill="#634700" opacity="0.40" d=" M 383.02 50.04 C 395.03 49.97 407.04 49.93 419.05 50.06 L 418.83 51.15 L 417.77 51.24 C 406.80 51.26 395.64 50.15 384.75 51.57 C 383.16 52.33 382.58 51.81 383.02 50.04 Z" />
</g>
<g id="#efac01f4">
<path fill="#efac01" opacity="0.96" d=" M 384.75 51.57 C 395.64 50.15 406.80 51.26 417.77 51.24 C 421.14 51.72 424.58 52.13 428.01 52.02 C 429.50 52.24 432.48 52.68 433.97 52.90 C 427.71 52.13 424.05 58.45 420.76 62.74 C 419.00 63.02 417.35 61.81 415.68 61.36 C 405.78 56.87 394.90 55.32 384.75 51.57 Z" />
</g>
<g id="#76540079">
<path fill="#765400" opacity="0.47" d=" M 417.77 51.24 L 418.83 51.15 C 421.28 51.83 427.02 49.50 428.01 52.02 C 424.58 52.13 421.14 51.72 417.77 51.24 Z" />
</g>
<g id="#f6b201fb">
<path fill="#f6b201" opacity="1.00" d=" M 420.76 62.74 C 424.05 58.45 427.71 52.13 433.97 52.90 C 435.34 52.92 436.70 53.10 438.04 53.45 C 440.27 54.19 442.54 54.37 444.83 54.00 C 453.80 54.24 462.58 56.71 471.35 58.51 C 496.29 63.74 521.37 69.92 544.01 81.98 C 584.70 102.71 615.68 139.24 635.07 179.97 C 630.63 177.15 628.22 172.45 626.06 167.86 C 622.50 163.16 620.31 157.69 617.38 152.65 C 602.76 134.43 586.49 117.22 567.61 103.35 C 551.84 102.24 535.98 103.90 520.24 102.34 C 515.62 107.07 510.22 111.25 506.72 116.91 C 490.89 103.30 474.32 90.24 455.98 80.04 C 444.85 73.07 432.59 68.27 420.76 62.74 Z" />
</g>
<g id="#93690096">
<path fill="#936900" opacity="0.59" d=" M 438.04 53.45 C 439.85 52.64 444.06 51.76 444.83 54.00 C 442.54 54.37 440.27 54.19 438.04 53.45 Z" />
</g>
<g id="#8957008d">
<path fill="#895700" opacity="0.55" d=" M 102.00 69.03 C 127.67 68.99 153.34 68.96 179.00 69.03 L 178.99 69.99 C 177.39 70.03 175.80 70.08 174.21 70.16 C 170.53 70.10 166.88 69.91 163.22 70.21 C 142.82 69.78 122.41 70.08 102.01 70.00 L 102.00 69.03 Z" />
</g>
<g id="#7d580081">
<path fill="#7d5800" opacity="0.51" d=" M 179.00 69.03 C 230.00 68.98 281.00 68.97 332.00 69.03 L 332.00 70.00 C 310.07 70.22 288.13 69.62 266.22 70.22 C 258.88 70.00 251.54 69.90 244.22 70.23 C 238.88 70.15 233.54 69.76 228.22 70.22 C 211.81 69.79 195.40 70.09 178.99 69.99 L 179.00 69.03 Z" />
</g>
<g id="#4936004c">
<path fill="#493600" opacity="0.30" d=" M 332.00 69.03 C 334.35 69.83 340.02 67.52 341.01 70.00 C 337.98 69.99 335.01 70.02 332.00 70.00 L 332.00 69.03 Z" />
</g>
<g id="#74490077">
<path fill="#744900" opacity="0.47" d=" M 101.04 70.02 L 102.01 70.00 C 101.98 79.07 101.97 88.14 102.11 97.21 C 101.86 110.80 102.08 124.40 101.99 138.00 L 101.03 138.00 C 100.99 115.34 100.95 92.67 101.04 70.02 Z" />
</g>
<g id="#f79a00fe">
<path fill="#f79a00" opacity="1.00" d=" M 102.01 70.00 C 122.41 70.08 142.82 69.78 163.22 70.21 C 150.67 72.09 137.54 69.79 125.19 73.25 C 116.07 79.55 110.16 89.59 102.11 97.21 C 101.97 88.14 101.98 79.07 102.01 70.00 Z" />
</g>
<g id="#f99f00ff">
<path fill="#f99f00" opacity="1.00" d=" M 163.22 70.21 C 166.88 69.91 170.53 70.10 174.21 70.16 C 168.43 71.83 161.41 71.25 156.97 75.97 C 137.51 94.19 118.47 113.33 103.71 135.65 C 103.23 142.38 104.28 149.59 102.26 156.26 C 102.04 150.17 102.01 144.09 101.99 138.00 C 102.08 124.40 101.86 110.80 102.11 97.21 C 110.16 89.59 116.07 79.55 125.19 73.25 C 137.54 69.79 150.67 72.09 163.22 70.21 Z" />
</g>
<g id="#f9a401ff">
<path fill="#f9a401" opacity="1.00" d=" M 174.21 70.16 C 175.80 70.08 177.39 70.03 178.99 69.99 C 195.40 70.09 211.81 69.79 228.22 70.22 C 213.28 71.48 198.13 70.72 183.30 73.31 C 152.75 97.71 125.65 126.74 105.15 160.13 C 103.28 173.33 102.80 186.68 102.98 200.00 L 102.00 200.00 C 102.15 185.42 101.64 170.82 102.26 156.26 C 104.28 149.59 103.23 142.38 103.71 135.65 C 118.47 113.33 137.51 94.19 156.97 75.97 C 161.41 71.25 168.43 71.83 174.21 70.16 Z" />
</g>
<g id="#f9a801ff">
<path fill="#f9a801" opacity="1.00" d=" M 228.22 70.22 C 233.54 69.76 238.88 70.15 244.22 70.23 C 233.94 71.42 223.60 71.79 213.28 72.33 C 205.68 72.33 200.39 78.59 194.58 82.54 C 157.63 110.40 127.11 146.50 105.57 187.46 C 103.77 196.28 104.33 205.32 103.22 214.21 C 103.11 209.47 103.04 204.74 102.98 200.00 C 102.80 186.68 103.28 173.33 105.15 160.13 C 125.65 126.74 152.75 97.71 183.30 73.31 C 198.13 70.72 213.28 71.48 228.22 70.22 Z" />
</g>
<g id="#f9ab01ff">
<path fill="#f9ab01" opacity="1.00" d=" M 244.22 70.23 C 251.54 69.90 258.88 70.00 266.22 70.22 C 255.00 72.21 242.11 69.08 232.21 76.19 C 175.90 109.91 130.52 162.08 106.18 223.15 C 103.60 229.22 104.73 235.98 103.27 242.26 C 102.93 232.91 102.82 223.56 103.22 214.21 C 104.33 205.32 103.77 196.28 105.57 187.46 C 127.11 146.50 157.63 110.40 194.58 82.54 C 200.39 78.59 205.68 72.33 213.28 72.33 C 223.60 71.79 233.94 71.42 244.22 70.23 Z" />
<path fill="#f9ab01" opacity="1.00" d=" M 213.13 576.81 C 212.80 585.09 221.40 587.38 226.72 591.27 C 244.83 602.90 264.39 612.21 284.66 619.42 C 285.99 619.97 287.17 620.82 288.31 621.71 C 263.22 622.30 238.10 621.95 213.00 621.93 C 213.03 606.89 212.90 591.84 213.13 576.81 Z" />
</g>
<g id="#f9b001fe">
<path fill="#f9b001" opacity="1.00" d=" M 266.22 70.22 C 288.13 69.62 310.07 70.22 332.00 70.00 C 335.01 70.02 337.98 69.99 341.01 70.00 C 349.35 70.58 357.63 71.85 365.89 73.08 L 366.02 73.96 C 354.71 73.46 343.57 70.68 332.21 71.17 C 310.83 70.63 289.40 71.06 268.13 73.22 C 237.11 86.49 209.79 106.88 184.80 129.29 C 180.71 128.06 178.36 132.44 175.72 134.72 C 142.85 168.40 118.94 210.74 105.90 255.90 C 102.80 277.18 105.07 298.84 103.21 320.22 C 102.93 294.24 102.75 268.23 103.27 242.26 C 104.73 235.98 103.60 229.22 106.18 223.15 C 130.52 162.08 175.90 109.91 232.21 76.19 C 242.11 69.08 255.00 72.21 266.22 70.22 Z" />
</g>
<g id="#fab501ff">
<path fill="#fab501" opacity="1.00" d=" M 268.13 73.22 C 289.40 71.06 310.83 70.63 332.21 71.17 C 325.45 72.16 318.62 72.77 311.87 73.78 C 272.11 85.06 234.89 105.48 204.21 133.21 C 202.70 134.16 203.15 135.76 203.95 137.02 C 197.94 137.01 191.94 137.03 185.95 136.99 C 183.64 134.21 187.65 132.38 188.99 130.25 C 187.59 129.93 186.18 129.65 184.80 129.29 C 209.79 106.88 237.11 86.49 268.13 73.22 Z" />
</g>
<g id="#faba01ff">
<path fill="#faba01" opacity="1.00" d=" M 332.21 71.17 C 343.57 70.68 354.71 73.46 366.02 73.96 C 371.78 74.05 377.19 76.44 382.87 77.17 L 383.02 77.97 C 334.64 78.93 286.52 93.51 246.03 120.05 C 237.80 124.99 230.65 131.46 222.85 136.94 C 216.55 137.00 210.25 137.05 203.95 137.02 C 203.15 135.76 202.70 134.16 204.21 133.21 C 234.89 105.48 272.11 85.06 311.87 73.78 C 318.62 72.77 325.45 72.16 332.21 71.17 Z" />
</g>
<g id="#f9bd02fe">
<path fill="#f9bd02" opacity="1.00" d=" M 246.03 120.05 C 286.52 93.51 334.64 78.93 383.02 77.97 C 387.73 77.48 391.76 80.59 396.20 81.62 C 406.04 84.55 415.54 88.63 424.67 93.33 L 425.07 94.10 C 418.07 93.26 412.12 88.53 404.94 88.10 C 386.15 87.97 367.18 87.13 348.59 90.44 C 309.98 96.37 272.96 111.63 241.14 134.24 C 241.24 135.21 241.50 136.13 241.92 137.03 C 235.56 137.02 229.21 137.00 222.85 136.94 C 230.65 131.46 237.80 124.99 246.03 120.05 Z" />
</g>
<g id="#fac202fe">
<path fill="#fac202" opacity="1.00" d=" M 348.59 90.44 C 367.18 87.13 386.15 87.97 404.94 88.10 C 412.12 88.53 418.07 93.26 425.07 94.10 C 435.80 97.58 444.97 104.52 454.40 110.54 C 455.31 111.30 456.77 111.73 457.06 113.04 C 452.35 112.47 448.38 109.43 443.78 108.37 C 398.10 97.38 349.12 99.21 305.09 116.10 C 292.17 121.35 277.63 125.40 268.83 136.93 C 259.86 137.03 250.88 137.02 241.92 137.03 C 241.50 136.13 241.24 135.21 241.14 134.24 C 272.96 111.63 309.98 96.37 348.59 90.44 Z" />
</g>
<g id="#fbc702ff">
<path fill="#fbc702" opacity="1.00" d=" M 305.09 116.10 C 349.12 99.21 398.10 97.38 443.78 108.37 C 448.38 109.43 452.35 112.47 457.06 113.04 C 457.48 113.12 458.31 113.27 458.72 113.35 C 471.56 123.79 484.55 134.53 495.09 147.25 C 494.25 147.49 493.44 147.50 492.66 147.28 C 444.59 120.02 385.76 112.47 332.32 126.40 C 326.82 127.87 323.77 133.15 319.86 136.87 C 302.85 137.08 285.84 137.06 268.83 136.93 C 277.63 125.40 292.17 121.35 305.09 116.10 Z" />
<path fill="#fbc702" opacity="1.00" d=" M 167.16 253.11 C 170.33 245.49 172.85 237.44 177.86 230.76 C 178.16 241.09 178.02 251.42 177.86 261.74 C 175.32 264.12 175.08 267.91 173.94 270.98 C 160.54 316.49 159.95 366.88 177.82 411.23 C 178.31 421.56 177.92 431.91 177.86 442.25 C 173.87 438.01 172.72 431.93 170.19 426.84 C 146.63 372.25 146.04 308.54 167.16 253.11 Z" />
</g>
<g id="#f9b601fe">
<path fill="#f9b601" opacity="1.00" d=" M 520.24 102.34 C 535.98 103.90 551.84 102.24 567.61 103.35 C 586.49 117.22 602.76 134.43 617.38 152.65 C 620.31 157.69 622.50 163.16 626.06 167.86 C 628.22 172.45 630.63 177.15 635.07 179.97 C 646.40 199.16 653.38 220.75 660.14 241.90 C 664.52 259.70 668.01 277.81 670.01 296.00 C 669.99 298.75 669.80 301.62 670.63 304.30 C 670.74 305.01 670.97 306.44 671.08 307.15 C 671.05 308.86 671.00 312.28 670.98 313.99 C 670.51 316.42 670.68 318.75 671.50 320.99 C 672.27 329.13 672.33 337.53 671.73 345.75 C 671.18 349.13 670.94 352.59 670.95 356.02 C 668.01 401.17 656.68 446.12 635.03 486.02 C 618.15 516.95 595.24 544.76 567.17 566.15 C 538.13 588.61 504.15 604.41 468.65 613.54 C 462.52 614.24 456.57 617.49 450.34 616.75 C 435.25 614.71 420.05 616.53 405.00 617.89 C 391.66 618.09 378.33 618.13 365.00 617.85 C 310.06 613.40 256.50 592.92 213.01 558.96 C 213.02 548.57 212.84 538.18 213.14 527.80 C 214.09 531.11 214.69 534.63 216.29 537.73 C 255.37 571.01 304.36 592.60 355.40 598.44 C 371.82 600.95 388.48 599.78 405.02 599.98 C 462.37 595.75 518.32 572.65 561.24 534.24 C 599.39 501.18 627.04 456.46 640.97 408.00 C 655.65 355.39 654.31 298.18 635.19 246.88 C 619.09 201.74 590.20 161.19 552.77 131.28 C 549.46 129.21 544.99 130.24 541.24 129.29 C 537.42 133.51 532.29 136.82 529.64 141.95 C 522.78 132.90 514.32 125.25 506.72 116.91 C 510.22 111.25 515.62 107.07 520.24 102.34 Z" />
</g>
<g id="#f9cc02fd">
<path fill="#f9cc02" opacity="1.00" d=" M 332.32 126.40 C 385.76 112.47 444.59 120.02 492.66 147.28 C 493.44 147.50 494.25 147.49 495.09 147.25 L 495.83 147.18 C 503.21 155.93 510.69 164.81 516.11 174.95 C 511.94 172.92 509.65 168.63 505.86 166.12 C 481.32 148.67 452.76 136.88 423.11 131.77 C 412.61 129.55 401.85 129.52 391.26 128.18 C 385.67 133.90 379.87 139.41 374.36 145.20 C 374.49 145.65 374.74 146.54 374.86 146.99 C 361.24 143.10 347.41 139.86 333.25 138.71 C 331.75 138.47 328.74 138.00 327.23 137.76 C 324.77 137.40 322.31 137.10 319.86 136.87 C 323.77 133.15 326.82 127.87 332.32 126.40 Z" />
</g>
<g id="#facf02fe">
<path fill="#facf02" opacity="1.00" d=" M 391.26 128.18 C 401.85 129.52 412.61 129.55 423.11 131.77 C 452.76 136.88 481.32 148.67 505.86 166.12 C 509.65 168.63 511.94 172.92 516.11 174.95 C 524.28 186.03 530.61 198.90 535.02 212.01 C 530.52 207.18 528.45 200.20 523.30 195.71 C 504.29 177.34 481.64 162.54 456.89 153.17 C 441.62 147.29 425.58 142.83 409.13 142.52 C 405.12 146.32 401.09 150.12 397.38 154.21 C 397.48 154.67 397.66 155.60 397.75 156.07 C 390.18 152.90 382.61 149.70 374.86 146.99 C 374.74 146.54 374.49 145.65 374.36 145.20 C 379.87 139.41 385.67 133.90 391.26 128.18 Z" />
</g>
<g id="#fab301ff">
<path fill="#fab301" opacity="1.00" d=" M 175.72 134.72 C 178.36 132.44 180.71 128.06 184.80 129.29 C 186.18 129.65 187.59 129.93 188.99 130.25 C 187.65 132.38 183.64 134.21 185.95 136.99 C 183.10 136.27 180.71 136.53 178.78 137.78 C 177.34 141.75 178.25 146.48 177.89 150.79 C 145.72 187.07 123.29 231.91 113.48 279.39 C 95.57 364.10 119.37 457.07 177.91 521.19 C 178.06 529.45 177.96 537.72 178.01 546.00 C 177.99 548.04 177.97 550.09 177.95 552.15 C 174.26 549.90 171.21 546.85 168.21 543.80 C 141.31 514.73 119.31 480.83 105.53 443.61 C 104.88 436.98 104.17 430.35 103.30 423.75 C 102.75 389.25 102.90 354.72 103.21 320.22 C 105.07 298.84 102.80 277.18 105.90 255.90 C 118.94 210.74 142.85 168.40 175.72 134.72 Z" />
</g>
<g id="#fabf02ff">
<path fill="#fabf02" opacity="1.00" d=" M 541.24 129.29 C 544.99 130.24 549.46 129.21 552.77 131.28 C 590.20 161.19 619.09 201.74 635.19 246.88 C 654.31 298.18 655.65 355.39 640.97 408.00 C 627.04 456.46 599.39 501.18 561.24 534.24 C 518.32 572.65 462.37 595.75 405.02 599.98 C 388.48 599.78 371.82 600.95 355.40 598.44 C 304.36 592.60 255.37 571.01 216.29 537.73 C 214.69 534.63 214.09 531.11 213.14 527.80 C 212.92 518.86 213.00 509.93 213.00 501.00 C 213.04 499.20 213.12 495.60 213.16 493.80 C 214.44 496.49 215.48 499.32 217.25 501.76 C 255.34 541.56 308.06 566.96 362.89 572.23 C 445.93 581.90 532.05 542.21 579.86 473.84 C 615.04 425.10 630.32 362.58 621.83 303.10 C 615.03 255.37 593.29 209.87 560.28 174.73 C 557.91 172.42 555.73 169.92 553.10 167.92 C 552.27 169.15 552.02 170.61 551.77 172.03 C 545.18 161.49 537.86 151.30 529.64 141.95 C 532.29 136.82 537.42 133.51 541.24 129.29 Z" />
</g>
<g id="#d1a101d4">
<path fill="#d1a101" opacity="0.83" d=" M 178.78 137.78 C 180.71 136.53 183.10 136.27 185.95 136.99 C 191.94 137.03 197.94 137.01 203.95 137.02 C 210.25 137.05 216.55 137.00 222.85 136.94 C 229.21 137.00 235.56 137.02 241.92 137.03 C 250.88 137.02 259.86 137.03 268.83 136.93 C 285.84 137.06 302.85 137.08 319.86 136.87 C 322.31 137.10 324.77 137.40 327.23 137.76 C 278.11 138.24 228.99 137.98 179.87 137.90 L 178.78 137.78 Z" />
</g>
<g id="#66470068">
<path fill="#664700" opacity="0.41" d=" M 101.03 138.00 L 101.99 138.00 C 102.01 144.09 102.04 150.17 102.26 156.26 C 101.64 170.82 102.15 185.42 102.00 200.00 C 102.00 294.00 102.00 388.00 102.00 482.00 C 101.97 499.33 102.04 516.67 101.98 534.01 L 101.01 533.99 C 101.00 402.00 100.97 270.00 101.03 138.00 Z" />
</g>
<g id="#dba301df">
<path fill="#dba301" opacity="0.87" d=" M 177.89 150.79 C 178.25 146.48 177.34 141.75 178.78 137.78 C 179.26 163.85 178.89 189.93 178.99 216.00 L 177.99 215.99 C 177.95 215.19 177.88 213.58 177.84 212.77 C 178.00 207.10 177.97 201.42 177.86 195.76 C 177.93 192.42 177.99 189.11 177.89 185.78 C 177.97 180.77 178.05 175.77 177.90 170.76 C 178.01 164.10 178.08 157.44 177.89 150.79 Z" />
</g>
<g id="#36290037">
<path fill="#362900" opacity="0.22" d=" M 178.78 137.78 L 179.87 137.90 L 179.96 138.96 C 180.02 299.97 180.03 460.98 179.96 621.99 L 178.99 621.97 C 179.00 596.64 179.02 571.32 178.99 546.00 C 179.01 519.66 179.00 493.33 179.00 467.00 C 179.00 383.33 179.01 299.67 178.99 216.00 C 178.89 189.93 179.26 163.85 178.78 137.78 Z" />
</g>
<g id="#31260032">
<path fill="#312600" opacity="0.20" d=" M 179.87 137.90 C 228.99 137.98 278.11 138.24 327.23 137.76 C 328.74 138.00 331.75 138.47 333.25 138.71 C 282.17 139.35 231.06 138.87 179.96 138.96 L 179.87 137.90 Z" />
</g>
<g id="#fad402fd">
<path fill="#fad402" opacity="1.00" d=" M 409.13 142.52 C 425.58 142.83 441.62 147.29 456.89 153.17 C 481.64 162.54 504.29 177.34 523.30 195.71 C 528.45 200.20 530.52 207.18 535.02 212.01 C 542.23 227.68 547.42 244.89 550.02 262.01 C 547.67 259.02 548.13 254.78 546.54 251.39 C 526.27 212.14 490.51 181.14 448.98 166.18 C 443.44 170.07 438.75 176.04 433.77 180.96 C 423.15 170.92 410.26 163.27 397.75 156.07 C 397.66 155.60 397.48 154.67 397.38 154.21 C 401.09 150.12 405.12 146.32 409.13 142.52 Z" />
</g>
<g id="#fab701ff">
<path fill="#fab701" opacity="1.00" d=" M 113.48 279.39 C 123.29 231.91 145.72 187.07 177.89 150.79 C 178.08 157.44 178.01 164.10 177.90 170.76 C 160.84 190.36 148.42 213.72 138.54 237.63 C 117.04 291.46 113.59 352.56 129.50 408.36 C 139.36 442.34 155.11 475.03 177.90 502.22 C 178.01 508.53 178.03 514.86 177.91 521.19 C 119.37 457.07 95.57 364.10 113.48 279.39 Z" />
</g>
<g id="#fbda02fe">
<path fill="#fbda02" opacity="1.00" d=" M 433.77 180.96 C 438.75 176.04 443.44 170.07 448.98 166.18 C 490.51 181.14 526.27 212.14 546.54 251.39 C 548.13 254.78 547.67 259.02 550.02 262.01 C 551.97 269.70 553.28 278.06 554.00 286.14 C 553.51 288.52 553.68 290.81 554.49 293.00 C 554.93 294.28 555.11 295.62 555.03 297.01 C 554.99 310.34 554.95 323.67 555.02 337.00 C 555.43 344.08 553.47 350.95 552.92 357.96 L 552.04 357.95 C 551.18 354.85 550.61 351.62 552.75 348.90 C 551.35 338.63 553.56 328.24 552.11 317.97 C 547.66 279.51 529.64 242.10 500.91 216.08 C 493.64 215.96 486.38 215.97 479.14 215.53 C 475.31 218.95 471.87 222.78 468.10 226.25 C 459.16 209.85 447.87 193.59 433.77 180.96 Z" />
</g>
<g id="#fac802fe">
<path fill="#fac802" opacity="1.00" d=" M 553.10 167.92 C 555.73 169.92 557.91 172.42 560.28 174.73 C 593.29 209.87 615.03 255.37 621.83 303.10 C 630.32 362.58 615.04 425.10 579.86 473.84 C 532.05 542.21 445.93 581.90 362.89 572.23 C 308.06 566.96 255.34 541.56 217.25 501.76 C 215.48 499.32 214.44 496.49 213.16 493.80 C 212.87 481.46 212.95 469.13 213.16 456.80 C 214.18 461.28 214.40 466.17 216.75 470.25 C 234.82 493.71 258.24 512.58 283.94 527.11 C 283.66 530.99 283.95 534.69 284.79 538.21 L 285.38 538.83 C 325.25 539.27 365.13 538.81 405.00 539.05 C 408.00 538.81 411.34 539.47 414.27 538.32 C 415.28 538.01 416.28 537.68 417.28 537.35 C 461.87 533.89 502.49 509.74 533.25 478.25 C 543.76 466.62 553.97 454.55 561.89 440.93 C 581.13 409.41 590.21 372.79 593.28 336.25 C 593.69 332.90 594.01 329.57 594.24 326.21 C 594.93 318.48 595.97 310.41 594.36 302.74 C 594.05 299.70 594.12 296.68 593.41 293.71 C 589.52 250.60 575.18 208.46 551.77 172.03 C 552.02 170.61 552.27 169.15 553.10 167.92 Z" />
</g>
<g id="#fabb01ff">
<path fill="#fabb01" opacity="1.00" d=" M 138.54 237.63 C 148.42 213.72 160.84 190.36 177.90 170.76 C 178.05 175.77 177.97 180.77 177.89 185.78 C 161.22 206.92 149.75 231.68 141.07 257.04 C 124.09 310.45 124.29 369.50 143.54 422.29 C 151.83 445.42 163.00 467.66 177.89 487.25 C 177.97 492.22 178.04 497.23 177.90 502.22 C 155.11 475.03 139.36 442.34 129.50 408.36 C 113.59 352.56 117.04 291.46 138.54 237.63 Z" />
</g>
<g id="#fabd02ff">
<path fill="#fabd02" opacity="1.00" d=" M 141.07 257.04 C 149.75 231.68 161.22 206.92 177.89 185.78 C 177.99 189.11 177.93 192.42 177.86 195.76 C 131.65 262.23 121.77 352.13 151.72 427.30 C 158.74 444.39 166.44 461.57 177.87 476.22 C 177.96 479.87 178.02 483.58 177.89 487.25 C 163.00 467.66 151.83 445.42 143.54 422.29 C 124.29 369.50 124.09 310.45 141.07 257.04 Z" />
</g>
<g id="#16120017">
<path fill="#161200" opacity="0.09" d=" M 213.01 190.03 C 237.00 189.99 261.00 189.95 284.99 190.04 L 285.01 191.00 C 261.00 191.00 236.99 190.98 212.98 191.02 L 213.01 190.03 Z" />
</g>
<g id="#967d0198">
<path fill="#967d01" opacity="0.60" d=" M 211.99 190.86 L 212.98 191.02 L 213.01 192.01 C 213.23 209.08 212.54 226.19 213.27 243.26 C 212.81 255.58 212.86 267.92 213.30 280.25 C 212.79 317.74 212.82 355.26 213.28 392.76 C 212.90 405.08 212.77 417.42 213.29 429.75 C 212.91 438.76 212.89 447.78 213.16 456.80 C 212.95 469.13 212.87 481.46 213.16 493.80 C 213.12 495.60 213.04 499.20 213.00 501.00 L 212.01 501.00 C 211.98 397.62 212.03 294.24 211.99 190.86 Z" />
</g>
<g id="#b49501b8">
<path fill="#b49501" opacity="0.72" d=" M 212.98 191.02 C 236.99 190.98 261.00 191.00 285.01 191.00 L 284.99 191.98 C 281.71 192.00 278.47 191.98 275.20 192.14 C 266.87 192.08 258.54 191.77 250.22 192.16 C 237.82 191.91 225.41 192.00 213.01 192.01 L 212.98 191.02 Z" />
</g>
<g id="#7f710281">
<path fill="#7f7102" opacity="0.51" d=" M 285.01 191.00 C 320.01 190.99 355.01 191.01 390.01 190.99 C 390.26 191.24 390.76 191.73 391.01 191.98 C 367.41 192.19 343.80 191.68 320.21 192.18 C 308.47 191.89 296.73 192.05 284.99 191.98 L 285.01 191.00 Z" />
</g>
<g id="#fbcd02ff">
<path fill="#fbcd02" opacity="1.00" d=" M 213.01 192.01 C 225.41 192.00 237.82 191.91 250.22 192.16 C 241.34 193.85 236.44 201.57 230.94 207.94 C 226.27 214.29 220.91 220.15 217.05 227.06 C 213.79 231.81 214.89 237.95 213.27 243.26 C 212.54 226.19 213.23 209.08 213.01 192.01 Z" />
<path fill="#fbcd02" opacity="1.00" d=" M 213.29 429.75 C 214.83 435.49 214.18 442.05 218.02 447.00 C 234.91 472.61 257.74 494.23 283.99 510.07 C 284.03 515.74 283.98 521.42 283.94 527.11 C 258.24 512.58 234.82 493.71 216.75 470.25 C 214.40 466.17 214.18 461.28 213.16 456.80 C 212.89 447.78 212.91 438.76 213.29 429.75 Z" />
</g>
<g id="#fbd202ff">
<path fill="#fbd202" opacity="1.00" d=" M 250.22 192.16 C 258.54 191.77 266.87 192.08 275.20 192.14 C 263.06 192.68 255.64 202.94 247.78 210.77 C 235.37 224.61 225.25 240.36 217.05 257.00 C 214.16 264.37 214.80 272.58 213.30 280.25 C 212.86 267.92 212.81 255.58 213.27 243.26 C 214.89 237.95 213.79 231.81 217.05 227.06 C 220.91 220.15 226.27 214.29 230.94 207.94 C 236.44 201.57 241.34 193.85 250.22 192.16 Z" />
<path fill="#fbd202" opacity="1.00" d=" M 213.28 392.76 C 214.56 400.61 214.31 408.92 217.67 416.32 C 232.15 447.05 255.30 473.84 283.92 492.17 C 284.00 498.12 284.01 504.09 283.99 510.07 C 257.74 494.23 234.91 472.61 218.02 447.00 C 214.18 442.05 214.83 435.49 213.29 429.75 C 212.77 417.42 212.90 405.08 213.28 392.76 Z" />
</g>
<g id="#fcd702ff">
<path fill="#fcd702" opacity="1.00" d=" M 275.20 192.14 C 278.47 191.98 281.71 192.00 284.99 191.98 C 296.73 192.05 308.47 191.89 320.21 192.18 C 317.88 192.55 315.56 192.93 313.26 193.33 C 302.69 193.29 291.04 191.26 281.28 196.35 C 262.27 210.96 245.72 229.10 234.21 250.22 C 223.22 269.67 214.68 291.33 214.84 313.99 C 213.60 341.03 211.83 369.50 221.70 395.30 C 233.57 428.27 255.54 457.62 283.96 478.11 C 283.98 481.03 284.00 484.04 284.02 486.99 C 283.98 488.71 283.95 490.44 283.92 492.17 C 255.30 473.84 232.15 447.05 217.67 416.32 C 214.31 408.92 214.56 400.61 213.28 392.76 C 212.82 355.26 212.79 317.74 213.30 280.25 C 214.80 272.58 214.16 264.37 217.05 257.00 C 225.25 240.36 235.37 224.61 247.78 210.77 C 255.64 202.94 263.06 192.68 275.20 192.14 Z" />
</g>
<g id="#fcdd03ff">
<path fill="#fcdd03" opacity="1.00" d=" M 320.21 192.18 C 343.80 191.68 367.41 192.19 391.01 191.98 C 391.51 192.23 392.50 192.74 393.00 192.99 C 392.30 193.05 390.91 193.18 390.22 193.25 C 368.01 193.10 345.71 192.06 323.58 194.39 C 320.15 194.45 316.95 195.31 313.98 196.98 C 275.16 217.53 245.29 254.73 234.50 297.39 C 228.62 322.03 227.52 348.30 234.03 372.93 C 239.56 396.58 250.91 418.80 266.76 437.23 C 271.97 443.33 277.10 449.90 283.90 454.26 C 283.95 458.23 283.95 462.22 283.91 466.21 C 261.56 449.81 244.91 426.37 233.82 401.15 C 213.78 355.12 216.50 299.93 241.21 256.21 C 253.99 233.07 272.43 213.13 294.20 198.19 C 299.66 193.76 306.87 194.89 313.26 193.33 C 315.56 192.93 317.88 192.55 320.21 192.18 Z" />
</g>
<g id="#fcda02ff">
<path fill="#fcda02" opacity="1.00" d=" M 281.28 196.35 C 291.04 191.26 302.69 193.29 313.26 193.33 C 306.87 194.89 299.66 193.76 294.20 198.19 C 272.43 213.13 253.99 233.07 241.21 256.21 C 216.50 299.93 213.78 355.12 233.82 401.15 C 244.91 426.37 261.56 449.81 283.91 466.21 C 283.96 470.17 283.97 474.14 283.96 478.11 C 255.54 457.62 233.57 428.27 221.70 395.30 C 211.83 369.50 213.60 341.03 214.84 313.99 C 214.68 291.33 223.22 269.67 234.21 250.22 C 245.72 229.10 262.27 210.96 281.28 196.35 Z" />
</g>
<g id="#fce103ff">
<path fill="#fce103" opacity="1.00" d=" M 323.58 194.39 C 345.71 192.06 368.01 193.10 390.22 193.25 C 378.28 194.96 366.14 193.28 354.18 194.25 C 349.24 197.15 343.42 198.08 338.11 200.14 C 288.49 217.23 250.42 263.58 243.66 315.69 C 236.52 359.41 252.06 406.41 283.92 437.18 C 284.02 442.86 283.99 448.56 283.90 454.26 C 277.10 449.90 271.97 443.33 266.76 437.23 C 250.91 418.80 239.56 396.58 234.03 372.93 C 227.52 348.30 228.62 322.03 234.50 297.39 C 245.29 254.73 275.16 217.53 313.98 196.98 C 316.95 195.31 320.15 194.45 323.58 194.39 Z" />
</g>
<g id="#fbe403fe">
<path fill="#fbe403" opacity="1.00" d=" M 390.22 193.25 C 390.91 193.18 392.30 193.05 393.00 192.99 C 402.90 194.61 411.93 200.26 420.04 205.95 C 421.16 206.83 422.71 207.61 423.01 209.15 C 417.73 208.60 414.50 203.15 409.03 202.98 C 352.75 192.07 292.66 223.13 266.74 273.76 C 253.15 299.66 248.57 330.07 253.19 358.90 C 257.94 382.27 267.22 405.73 283.89 423.21 C 283.92 424.90 283.98 428.29 284.00 429.98 C 283.98 431.78 283.94 435.38 283.92 437.18 C 252.06 406.41 236.52 359.41 243.66 315.69 C 250.42 263.58 288.49 217.23 338.11 200.14 C 343.42 198.08 349.24 197.15 354.18 194.25 C 366.14 193.28 378.28 194.96 390.22 193.25 Z" />
</g>
<g id="#fac002ff">
<path fill="#fac002" opacity="1.00" d=" M 151.72 427.30 C 121.77 352.13 131.65 262.23 177.86 195.76 C 177.97 201.42 178.00 207.10 177.84 212.77 C 151.04 255.51 140.83 307.43 144.38 357.41 C 147.18 388.20 155.82 418.50 169.97 446.01 C 172.22 450.62 174.33 455.43 177.85 459.24 C 177.91 461.81 177.97 464.39 178.02 466.99 C 177.97 470.03 177.95 473.15 177.87 476.22 C 166.44 461.57 158.74 444.39 151.72 427.30 Z" />
</g>
<g id="#f4ac00f9">
<path fill="#f4ac00" opacity="0.98" d=" M 102.00 200.00 L 102.98 200.00 C 103.04 204.74 103.11 209.47 103.22 214.21 C 102.82 223.56 102.93 232.91 103.27 242.26 C 102.75 268.23 102.93 294.24 103.21 320.22 C 102.90 354.72 102.75 389.25 103.30 423.75 C 102.64 443.16 103.19 462.58 102.98 482.00 L 102.00 482.00 C 102.00 388.00 102.00 294.00 102.00 200.00 Z" />
</g>
<g id="#fce703ff">
<path fill="#fce703" opacity="1.00" d=" M 266.74 273.76 C 292.66 223.13 352.75 192.07 409.03 202.98 C 414.50 203.15 417.73 208.60 423.01 209.15 C 426.88 211.51 429.84 215.60 433.18 218.80 C 440.34 228.70 447.34 239.68 449.09 251.97 C 445.13 245.11 444.14 236.38 438.81 230.19 C 433.89 225.71 426.62 225.15 420.82 222.25 C 404.18 218.06 386.66 215.29 369.61 218.57 C 339.94 222.63 313.02 239.24 293.83 261.90 C 290.98 262.47 287.18 261.01 284.79 262.81 C 283.01 265.23 284.43 268.89 283.86 271.75 C 272.47 287.34 266.61 306.81 265.14 326.01 C 262.57 347.92 267.51 370.24 276.98 390.02 C 278.72 394.06 281.29 397.65 283.85 401.22 C 284.06 408.54 284.01 415.87 283.89 423.21 C 267.22 405.73 257.94 382.27 253.19 358.90 C 248.57 330.07 253.15 299.66 266.74 273.76 Z" />
</g>
<g id="#fbc302ff">
<path fill="#fbc302" opacity="1.00" d=" M 144.38 357.41 C 140.83 307.43 151.04 255.51 177.84 212.77 C 177.88 213.58 177.95 215.19 177.99 215.99 C 177.97 220.91 178.10 225.84 177.86 230.76 C 172.85 237.44 170.33 245.49 167.16 253.11 C 146.04 308.54 146.63 372.25 170.19 426.84 C 172.72 431.93 173.87 438.01 177.86 442.25 C 178.02 447.90 177.96 453.57 177.85 459.24 C 174.33 455.43 172.22 450.62 169.97 446.01 C 155.82 418.50 147.18 388.20 144.38 357.41 Z" />
</g>
<g id="#fadd03fd">
<path fill="#fadd03" opacity="1.00" d=" M 479.14 215.53 C 486.38 215.97 493.64 215.96 500.91 216.08 C 529.64 242.10 547.66 279.51 552.11 317.97 C 553.56 328.24 551.35 338.63 552.75 348.90 C 550.61 351.62 551.18 354.85 552.04 357.95 C 550.75 372.77 545.10 386.92 539.59 400.67 C 525.16 435.46 501.16 466.97 468.92 486.91 C 448.69 499.65 425.60 508.15 401.86 511.01 C 399.43 510.50 397.15 510.66 395.00 511.50 C 394.51 511.62 393.54 511.86 393.06 511.98 C 383.69 512.02 374.34 512.00 364.99 512.00 C 364.22 511.89 362.70 511.68 361.94 511.57 C 360.69 511.19 359.41 510.92 358.15 510.67 C 353.27 509.70 360.14 506.24 361.19 504.25 C 375.91 497.36 391.55 490.73 404.99 480.98 C 408.22 479.49 410.72 475.29 414.56 475.51 C 412.46 477.84 409.70 479.46 407.76 481.93 C 423.94 481.06 439.43 474.85 453.90 467.82 C 496.27 446.32 527.30 403.31 533.11 356.00 C 539.86 313.63 525.11 269.05 496.50 237.43 C 492.02 237.02 487.57 236.95 483.12 236.52 C 480.57 239.46 475.92 241.62 475.87 246.01 L 475.23 245.73 C 473.42 239.05 469.79 232.90 468.10 226.25 C 471.87 222.78 475.31 218.95 479.14 215.53 Z" />
</g>
<g id="#dcb002df">
<path fill="#dcb002" opacity="0.87" d=" M 177.99 215.99 L 178.99 216.00 C 179.01 299.67 179.00 383.33 179.00 467.00 L 178.02 466.99 C 177.97 464.39 177.91 461.81 177.85 459.24 C 177.96 453.57 178.02 447.90 177.86 442.25 C 177.92 431.91 178.31 421.56 177.82 411.23 C 178.14 361.40 178.07 311.57 177.86 261.74 C 178.02 251.42 178.16 241.09 177.86 230.76 C 178.10 225.84 177.97 220.91 177.99 215.99 Z" />
</g>
<g id="#fded03ff">
<path fill="#fded03" opacity="1.00" d=" M 369.61 218.57 C 386.66 215.29 404.18 218.06 420.82 222.25 C 426.62 225.15 433.89 225.71 438.81 230.19 C 444.14 236.38 445.13 245.11 449.09 251.97 C 450.43 252.85 449.90 254.65 450.05 255.99 C 450.02 257.68 450.00 259.38 449.94 261.07 C 435.19 248.55 416.59 240.53 397.32 238.64 C 370.67 235.03 342.92 244.38 322.78 261.89 C 313.13 262.05 303.47 262.07 293.83 261.90 C 313.02 239.24 339.94 222.63 369.61 218.57 Z" />
</g>
<g id="#fbe703fe">
<path fill="#fbe703" opacity="1.00" d=" M 483.12 236.52 C 487.57 236.95 492.02 237.02 496.50 237.43 C 525.11 269.05 539.86 313.63 533.11 356.00 C 527.30 403.31 496.27 446.32 453.90 467.82 C 439.43 474.85 423.94 481.06 407.76 481.93 C 409.70 479.46 412.46 477.84 414.56 475.51 C 422.64 466.31 432.93 459.19 440.37 449.33 C 465.53 420.73 479.96 383.87 484.27 346.26 C 484.62 343.55 484.99 340.92 485.27 338.23 C 486.13 327.15 486.82 315.75 485.40 304.70 C 483.44 296.02 484.53 287.00 482.68 278.28 C 481.76 267.27 477.66 256.80 475.87 246.01 C 475.92 241.62 480.57 239.46 483.12 236.52 Z" />
</g>
<g id="#fdf303ff">
<path fill="#fdf303" opacity="1.00" d=" M 322.78 261.89 C 342.92 244.38 370.67 235.03 397.32 238.64 C 416.59 240.53 435.19 248.55 449.94 261.07 L 449.89 261.98 C 407.52 261.97 365.15 262.12 322.78 261.89 Z" />
</g>
<g id="#cec502d0">
<path fill="#cec502" opacity="0.82" d=" M 450.05 255.99 L 451.02 256.01 C 451.01 257.75 450.98 261.25 450.97 262.99 C 395.58 262.87 340.18 263.27 284.79 262.81 C 287.18 261.01 290.98 262.47 293.83 261.90 C 303.47 262.07 313.13 262.05 322.78 261.89 C 365.15 262.12 407.52 261.97 449.89 261.98 L 449.94 261.07 C 450.00 259.38 450.02 257.68 450.05 255.99 Z" />
</g>
<g id="#fbca02ff">
<path fill="#fbca02" opacity="1.00" d=" M 173.94 270.98 C 175.08 267.91 175.32 264.12 177.86 261.74 C 178.07 311.57 178.14 361.40 177.82 411.23 C 159.95 366.88 160.54 316.49 173.94 270.98 Z" />
</g>
<g id="#d3c502d6">
<path fill="#d3c502" opacity="0.84" d=" M 283.86 271.75 C 284.43 268.89 283.01 265.23 284.79 262.81 C 285.26 318.54 284.89 374.28 284.98 430.02 L 284.00 429.98 C 283.98 428.29 283.92 424.90 283.89 423.21 C 284.01 415.87 284.06 408.54 283.85 401.22 C 284.10 358.07 284.09 314.91 283.86 271.75 Z" />
</g>
<g id="#3e3b013f">
<path fill="#3e3b01" opacity="0.25" d=" M 284.79 262.81 C 340.18 263.27 395.58 262.87 450.97 262.99 L 451.01 263.97 C 396.02 264.07 341.03 263.92 286.04 264.04 C 285.91 320.02 286.08 376.02 285.96 432.00 L 285.01 431.99 C 285.00 431.50 284.99 430.51 284.98 430.02 C 284.89 374.28 285.26 318.54 284.79 262.81 Z" />
</g>
<g id="#fdec03ff">
<path fill="#fdec03" opacity="1.00" d=" M 265.14 326.01 C 266.61 306.81 272.47 287.34 283.86 271.75 C 284.09 314.91 284.10 358.07 283.85 401.22 C 281.29 397.65 278.72 394.06 276.98 390.02 C 267.51 370.24 262.57 347.92 265.14 326.01 Z" />
</g>
<g id="#95800197">
<path fill="#958001" opacity="0.59" d=" M 554.00 286.14 C 556.16 287.04 555.36 291.16 554.49 293.00 C 553.68 290.81 553.51 288.52 554.00 286.14 Z" />
</g>
<g id="#493c004b">
<path fill="#493c00" opacity="0.29" d=" M 593.41 293.71 C 594.12 296.68 594.05 299.70 594.36 302.74 C 593.88 310.55 593.90 318.39 594.24 326.21 C 594.01 329.57 593.69 332.90 593.28 336.25 C 592.89 322.08 592.65 307.87 593.41 293.71 Z" />
</g>
<g id="#6e4f0071">
<path fill="#6e4f00" opacity="0.44" d=" M 670.01 296.00 C 672.27 296.92 670.56 301.86 670.63 304.30 C 669.80 301.62 669.99 298.75 670.01 296.00 Z" />
</g>
<g id="#9f8a01a2">
<path fill="#9f8a01" opacity="0.64" d=" M 555.03 297.01 C 558.38 296.54 555.22 302.85 556.01 305.00 C 555.98 313.33 555.93 321.66 556.02 330.00 C 556.01 331.75 555.99 335.24 555.98 336.99 L 555.02 337.00 C 554.95 323.67 554.99 310.34 555.03 297.01 Z" />
</g>
<g id="#caa401cd">
<path fill="#caa401" opacity="0.80" d=" M 594.36 302.74 C 595.97 310.41 594.93 318.48 594.24 326.21 C 593.90 318.39 593.88 310.55 594.36 302.74 Z" />
</g>
<g id="#aea502b0">
<path fill="#aea502" opacity="0.69" d=" M 485.40 304.70 C 486.82 315.75 486.13 327.15 485.27 338.23 L 485.18 337.17 C 484.92 326.35 484.68 315.50 485.40 304.70 Z" />
</g>
<g id="#1e1a001f">
<path fill="#1e1a00" opacity="0.12" d=" M 556.01 305.00 L 556.98 305.00 C 557.04 313.33 557.04 321.66 556.98 330.00 L 556.02 330.00 C 555.93 321.66 555.98 313.33 556.01 305.00 Z" />
</g>
<g id="#6a4c006d">
<path fill="#6a4c00" opacity="0.43" d=" M 671.08 307.15 C 672.97 308.21 672.36 312.15 671.46 313.99 L 670.98 313.99 C 671.00 312.28 671.05 308.86 671.08 307.15 Z" />
</g>
<g id="#bf8900c3">
<path fill="#bf8900" opacity="0.76" d=" M 670.98 313.99 L 671.46 313.99 C 672.69 316.02 672.52 318.91 671.50 320.99 C 670.68 318.75 670.51 316.42 670.98 313.99 Z" />
</g>
<g id="#746f0176">
<path fill="#746f01" opacity="0.46" d=" M 484.06 336.94 L 485.18 337.17 L 485.27 338.23 C 484.99 340.92 484.62 343.55 484.27 346.26 C 484.05 343.13 483.88 340.05 484.06 336.94 Z" />
</g>
<g id="#835f0087">
<path fill="#835f00" opacity="0.53" d=" M 670.95 356.02 C 670.94 352.59 671.18 349.13 671.73 345.75 C 671.86 349.13 672.15 352.58 671.96 355.98 L 670.95 356.02 Z" />
</g>
<g id="#f9a901ff">
<path fill="#f9a901" opacity="1.00" d=" M 103.30 423.75 C 104.17 430.35 104.88 436.98 105.53 443.61 C 119.31 480.83 141.31 514.73 168.21 543.80 C 171.21 546.85 174.26 549.90 177.95 552.15 C 178.05 567.80 178.02 583.46 177.95 599.13 C 148.58 576.32 123.29 548.27 103.47 516.82 C 105.07 505.18 102.94 493.62 102.98 482.00 C 103.19 462.58 102.64 443.16 103.30 423.75 Z" />
</g>
<g id="#cbb202ce">
<path fill="#cbb202" opacity="0.81" d=" M 284.00 429.98 L 284.98 430.02 C 284.99 430.51 285.00 431.50 285.01 431.99 C 284.96 450.33 285.03 468.66 284.99 487.00 L 284.02 486.99 C 284.00 484.04 283.98 481.03 283.96 478.11 C 283.97 474.14 283.96 470.17 283.91 466.21 C 283.95 462.22 283.95 458.23 283.90 454.26 C 283.99 448.56 284.02 442.86 283.92 437.18 C 283.94 435.38 283.98 431.78 284.00 429.98 Z" />
</g>
<g id="#322b0033">
<path fill="#322b00" opacity="0.20" d=" M 285.01 431.99 L 285.96 432.00 C 286.02 467.01 286.04 502.02 285.96 537.03 L 285.87 538.09 L 284.79 538.21 C 285.19 521.14 284.95 504.07 284.99 487.00 C 285.03 468.66 284.96 450.33 285.01 431.99 Z" />
</g>
<g id="#dba101df">
<path fill="#dba101" opacity="0.87" d=" M 178.02 466.99 L 179.00 467.00 C 179.00 493.33 179.01 519.66 178.99 546.00 L 178.01 546.00 C 177.96 537.72 178.06 529.45 177.91 521.19 C 178.03 514.86 178.01 508.53 177.90 502.22 C 178.04 497.23 177.97 492.22 177.89 487.25 C 178.02 483.58 177.96 479.87 177.87 476.22 C 177.95 473.15 177.97 470.03 178.02 466.99 Z" />
</g>
<g id="#f7a001fd">
<path fill="#f7a001" opacity="1.00" d=" M 102.00 482.00 L 102.98 482.00 C 102.94 493.62 105.07 505.18 103.47 516.82 C 123.29 548.27 148.58 576.32 177.95 599.13 C 178.01 606.34 178.17 613.56 177.89 620.78 C 177.44 620.88 176.53 621.10 176.07 621.20 C 143.50 613.30 116.58 587.20 106.55 555.33 C 104.92 548.29 102.52 541.24 101.98 534.01 C 102.04 516.67 101.97 499.33 102.00 482.00 Z" />
</g>
<g id="#c3a101c7">
<path fill="#c3a101" opacity="0.78" d=" M 284.02 486.99 L 284.99 487.00 C 284.95 504.07 285.19 521.14 284.79 538.21 C 283.95 534.69 283.66 530.99 283.94 527.11 C 283.98 521.42 284.03 515.74 283.99 510.07 C 284.01 504.09 284.00 498.12 283.92 492.17 C 283.95 490.44 283.98 488.71 284.02 486.99 Z" />
</g>
<g id="#9d7100a1">
<path fill="#9d7100" opacity="0.63" d=" M 212.01 501.00 L 213.00 501.00 C 213.00 509.93 212.92 518.86 213.14 527.80 C 212.84 538.18 213.02 548.57 213.01 558.96 C 213.00 564.90 212.95 570.85 213.13 576.81 C 212.90 591.84 213.03 606.89 213.00 621.93 L 212.00 622.14 C 212.01 581.76 211.98 541.38 212.01 501.00 Z" />
</g>
<g id="#d8b902db">
<path fill="#d8b902" opacity="0.86" d=" M 352.70 506.64 C 355.60 506.05 358.11 503.52 361.19 504.25 C 360.14 506.24 353.27 509.70 358.15 510.67 C 357.41 510.78 355.93 511.01 355.19 511.12 C 351.70 511.19 348.26 510.24 344.83 509.82 C 346.50 507.14 350.16 508.03 352.70 506.64 Z" />
</g>
<g id="#77660179">
<path fill="#776601" opacity="0.47" d=" M 355.19 511.12 C 355.93 511.01 357.41 510.78 358.15 510.67 C 359.41 510.92 360.69 511.19 361.94 511.57 C 360.05 512.16 356.17 513.05 355.19 511.12 Z" />
</g>
<g id="#86730188">
<path fill="#867301" opacity="0.53" d=" M 395.00 511.50 C 397.15 510.66 399.43 510.50 401.86 511.01 C 400.95 513.15 396.84 512.35 395.00 511.50 Z" />
</g>
<g id="#75650177">
<path fill="#756501" opacity="0.47" d=" M 364.99 512.00 C 374.34 512.00 383.69 512.02 393.06 511.98 L 392.98 512.98 C 383.66 512.98 374.34 513.13 365.03 512.96 L 364.99 512.00 Z" />
</g>
<g id="#241e0025">
<path fill="#241e00" opacity="0.15" d=" M 285.96 537.03 C 329.72 537.23 373.55 536.50 417.28 537.35 C 416.28 537.68 415.28 538.01 414.27 538.32 C 371.48 537.65 328.67 538.08 285.87 538.09 L 285.96 537.03 Z" />
</g>
<g id="#dbb302de">
<path fill="#dbb302" opacity="0.87" d=" M 284.79 538.21 L 285.87 538.09 C 328.67 538.08 371.48 537.65 414.27 538.32 C 411.34 539.47 408.00 538.81 405.00 539.05 C 365.13 538.81 325.25 539.27 285.38 538.83 L 284.79 538.21 Z" />
</g>
<g id="#d99201de">
<path fill="#d99201" opacity="0.87" d=" M 178.01 546.00 L 178.99 546.00 C 179.02 571.32 179.00 596.64 178.99 621.97 C 177.25 622.45 176.28 622.19 176.07 621.20 C 176.53 621.10 177.44 620.88 177.89 620.78 C 178.17 613.56 178.01 606.34 177.95 599.13 C 178.02 583.46 178.05 567.80 177.95 552.15 C 177.97 550.09 177.99 548.04 178.01 546.00 Z" />
</g>
<g id="#f9b201fe">
<path fill="#f9b201" opacity="1.00" d=" M 213.01 558.96 C 256.50 592.92 310.06 613.40 365.00 617.85 C 378.33 618.13 391.66 618.09 405.00 617.89 C 420.05 616.53 435.25 614.71 450.34 616.75 L 449.96 617.73 C 441.98 618.82 433.96 619.94 426.01 621.00 C 422.86 620.98 419.73 620.72 416.71 621.62 C 373.96 622.30 331.03 622.15 288.31 621.71 C 287.17 620.82 285.99 619.97 284.66 619.42 C 264.39 612.21 244.83 602.90 226.72 591.27 C 221.40 587.38 212.80 585.09 213.13 576.81 C 212.95 570.85 213.00 564.90 213.01 558.96 Z" />
</g>
<g id="#7957007c">
<path fill="#795700" opacity="0.49" d=" M 416.71 621.62 C 419.73 620.72 422.86 620.98 426.01 621.00 C 425.80 624.21 419.17 621.34 416.71 621.62 Z" />
</g>
</svg>
